<svg version="1.2" xmlns="http://www.w3.org/2000/svg" viewBox="0 0 1066 1192" width="1066" height="1192">
	<style>
		.s0 { fill: #003568 } 
	</style>
	<g id="Layer 1">
		<g id="&lt;Group&gt;">
			<g id="&lt;Group&gt;">
				<g id="&lt;Group&gt;">
					<path id="&lt;Compound Path&gt;" class="s0" d="m98.37 1058.69h31.18v6.71h-23.82v11.43h21.13v6.7h-21.13v17.06h-7.36z"/>
					<path id="&lt;Compound Path&gt;" class="s0" d="m164.12 1058.69h31.06v6.59h-23.7v10.89h21v6.58h-21v11.25h24v6.59h-31.36z"/>
					<path id="&lt;Compound Path&gt;" class="s0" d="m231.83 1058.69h31.06v6.59h-23.7v10.89h21v6.58h-21v11.25h24v6.59h-31.36z"/>
					<path id="&lt;Compound Path&gt;" fill-rule="evenodd" class="s0" d="m299.54 1058.69h15.61c13.17 0 22.27 9.04 22.27 20.83v0.12c0 11.79-9.1 20.95-22.27 20.95h-15.61zm7.36 6.7v28.49h8.25c8.8 0 14.55-5.93 14.55-14.13v-0.11c0-8.2-5.75-14.25-14.55-14.25z"/>
					<path id="&lt;Compound Path&gt;" fill-rule="evenodd" class="s0" d="m433.49 1058.39h6.82l18.43 42.2h-7.78l-4.25-10.12h-19.8l-4.31 10.12h-7.54zm10.53 25.55l-7.24-16.76-7.18 16.76z"/>
					<path id="&lt;Compound Path&gt;" fill-rule="evenodd" class="s0" d="m492.9 1058.69h15.62c13.16 0 22.26 9.04 22.26 20.83v0.12c0 11.79-9.1 20.95-22.26 20.95h-15.62zm7.36 6.7v28.49h8.26c8.79 0 14.54-5.93 14.54-14.13v-0.11c0-8.2-5.75-14.25-14.54-14.25z"/>
					<path id="&lt;Compound Path&gt;" fill-rule="evenodd" class="s0" d="m567.01 1058.69h15.62c13.16 0 22.26 9.04 22.26 20.83v0.12c0 11.79-9.1 20.95-22.26 20.95h-15.62zm7.36 6.7v28.49h8.26c8.79 0 14.54-5.93 14.54-14.13v-0.11c0-8.2-5.75-14.25-14.54-14.25z"/>
					<path id="&lt;Compound Path&gt;" class="s0" d="m641.41 1058.69h7.36v41.9h-7.36z"/>
					<path id="&lt;Compound Path&gt;" class="s0" d="m696.59 1065.52h-13.29v-6.83h33.99v6.83h-13.28v35.07h-7.42z"/>
					<path id="&lt;Compound Path&gt;" class="s0" d="m751.92 1058.69h7.36v41.9h-7.36z"/>
					<path id="&lt;Compound Path&gt;" class="s0" d="m793.52 1058.69h8.14l12.62 32.2 12.57-32.2h7.96l-17.35 42.2h-6.53z"/>
					<path id="&lt;Compound Path&gt;" class="s0" d="m868.97 1058.69h31.06v6.59h-23.7v10.89h21.01v6.58h-21.01v11.25h24v6.59h-31.36z"/>
					<path id="&lt;Compound Path&gt;" class="s0" d="m933.83 1094.48l4.43-5.27c4.01 3.48 8.08 5.45 13.22 5.45 4.55 0 7.42-2.15 7.42-5.26v-0.13c0-2.99-1.67-4.6-9.45-6.4-8.92-2.15-13.95-4.79-13.95-12.51v-0.11c0-7.19 5.99-12.16 14.31-12.16 6.1 0 10.95 1.86 15.2 5.27l-3.95 5.57c-3.77-2.82-7.54-4.31-11.37-4.31-4.31 0-6.83 2.21-6.83 4.96v0.13c0 3.23 1.92 4.66 10 6.58 8.86 2.15 13.4 5.32 13.4 12.27v0.12c0 7.84-6.16 12.5-14.96 12.5-6.4 0-12.44-2.21-17.47-6.7z"/>
				</g>
			</g>
			<g id="&lt;Group&gt;">
				<g id="&lt;Group&gt;">
					<g id="&lt;Group&gt;">
						<path id="&lt;Compound Path&gt;" fill-rule="evenodd" class="s0" d="m116.8 965.97q12.32-27.54 26.85-62.29 24.37-58.28 38.62-98.01 6.37 0.7 10.94 0.7 4.57 0 10.94-0.7 14.39 39.46 38.06 97.73 14.12 34.89 25.89 62.57 6.92 16.34 10.1 23.26 3.19 6.92 5.68 11.62-11.08-0.69-25.21-0.69-13.99 0-25.07 0.69-4.15-15.22-6.3-22.21-2.15-6.99-4.36-12.67l-8.06-21.32q-17.02-1.93-36.4-2.21-16.69-0.28-30.06 2.49-4.5 10.66-8.14 21.04-1.39 3.46-3.4 10.45-2.01 6.99-6.71 24.43-6.63-0.69-15.06-0.69-8.29 0-14.92 0.69 2.49-4.43 5.81-11.49 3.32-6.91 10.8-23.39zm48.09-63.81l-8.25 21.18q11.35 1.24 24.37 1.1 13.5-0.13 25.76-1.24l-0.41-1.11q-13.02-33.91-24.38-62.15h-0.04q-8.11 19.38-17.05 42.22z"/>
						<path id="&lt;Compound Path&gt;" fill-rule="evenodd" class="s0" d="m307.97 967.36q0.55-28.24 0.56-63.96-0.01-35.71-0.56-64.09-0.41-14.39-0.83-21.38-0.42-6.99-1.11-13.5 9.14 1.52 21.94 2.07 12.81 0.56 22.08 0 15.23-0.96 28.1-1.59 12.88-0.62 16.34-0.62 44.98 0 69.14 24.57 24.16 24.57 24.16 70.25 0 49.7-27.27 76.48-27.27 26.79-77.94 26.79-4.01 0-17.44-0.63-13.43-0.62-28.65-1.59-6.23-0.41-15.09 0.21-8.86 0.62-15.37 1.87 0.69-6.51 1.11-13.57 0.42-6.92 0.83-21.31zm42.22 13.98q12.32 1.38 26.99 1.24 31.84 0 48.32-21.73 16.47-21.73 16.47-63.54 0-35.85-16.75-54.54-16.75-18.69-49-18.69-13.99 0.01-26.03 1.11-0.83 33.5-0.83 78.07 0 44.72 0.83 78.08z"/>
						<path id="&lt;Compound Path&gt;" class="s0" d="m700.46 1002.38q0.69-6.51 1.11-13.5 0.41-6.99 0.83-21.39 0.55-28.51 0.55-64.23 0-35.84-0.55-64.09-0.42-14.39-0.83-21.38-0.42-6.99-1.11-13.5 7.47 0.97 20 1.59 12.53 0.63 23.33 0.62h9.13q18.28 0.01 35.03-0.69 16.75-0.69 20.76-1.66-0.83 5.68-0.83 13.01 0 7.34 0.83 13.01-4.71-1.1-19.31-1.86-14.61-0.76-29.55-0.77h-4.57l-11.49 0.14v62.43l22.01-0.13q12.18 0 24.71-0.7 12.53-0.69 17.09-1.52-0.83 5.4-0.83 12.32 0 6.92 0.83 12.32-4.56-0.83-17.09-1.52-12.53-0.69-24.71-0.69l-22.01-0.14v68.93l1.52 0.14h7.61q16.75 0 33.5-0.9 16.75-0.89 22.29-2.01-0.83 5.82-0.83 13.15 0 7.34 0.83 13.15-12.18-0.96-28.93-1.66-16.75-0.69-26.86-0.69h-9.13q-10.8 0-23.33 0.63-12.53 0.62-20 1.59z"/>
						<path id="&lt;Compound Path&gt;" class="s0" d="m872.11 913.65v-89.43q-14.53 0.14-28.92 0.83-16.76 0.97-22.43 2.08 0.83-5.12 0.83-11.49 0-6.37-0.83-11.49 8.86 1.11 28.86 1.94 20 0.83 38 0.83h4.98 4.99q17.99 0 37.99-0.83 20.01-0.83 28.87-1.94-0.83 5.12-0.83 11.49 0 6.37 0.83 11.49-5.68-1.11-22.43-2.08-14.4-0.69-28.93-0.83v89.43q0 31.42 0.41 48.86 0.42 17.44 1.81 38.34-9.97-0.69-22.57-0.69-12.73 0-22.84 0.69 1.38-20.9 1.8-38.34 0.41-17.44 0.41-48.86z"/>
					</g>
				</g>
				<path id="&lt;Path&gt;" class="s0" d="m491.72 734.13c7.16 6.57 13.41 15.98 14.77 25.6 0.77 5.47-0.51 11-1.9 16.34-0.35 1.35-4 8.31-4.05 9.7-3.48 2.63-3.83-0.32-6.44 2.95q-0.23-0.55-0.47-1.09c-14.58 5.23-31.87 1.97-43.54-8.21-6.52-5.68-11.18-13.12-16.24-20.12-14.9-20.63-35.25-38.91-60.18-44.03 0 0 74.94-20.64 118.05 18.86z"/>
				<g id="&lt;Group&gt;">
					<path id="&lt;Compound Path&gt;" class="s0" d="m482.63 746.96l117.19 202.71h0.02l16.53-44.43q12.91-35.16 22.77-63.4 0.68-2.21 2.69-9.14 2.01-6.91 7.13-25.74 6.64 0.69 14.93 0.69 8.29 0 14.78-0.69-1.66 3.32-4.63 10.31-2.98 6.99-10.32 24.57l-24.78 62.71q-22.56 58.28-36.26 97.59-7.62-0.83-13.15-0.83-5.54 0-13.15 0.83-13.71-39.45-36.27-97.73l-66.03-168.28"/>
				</g>
			</g>
			<g id="&lt;Group&gt;">
				<path id="&lt;Path&gt;" class="s0" d="m312.06 611.36c0.03 0.05-0.28 0.18-0.28 0.18q-0.18 0.03-0.34 0.05c-3.24 2.47-6.76 5.33-10.26 7.89-3.63 2.61-7.01 5.17-11.47 7.46-4.68 1.94-9 2.59-13.45 3.33-4.42 0.66-8.83 1.09-13.26 1.35-4.44 0.26-8.87 0.38-13.43 0.14q-1.71-0.09-3.49-0.31c-1.19-0.17-2.41-0.32-3.97-0.85-2.8-1.07-4.8-2.74-6.57-4.4-3.08-3.01-5.49-6.18-7.74-9.64-2.72-0.71-5.22-1.61-7.8-2.95-1.51-0.8-3.01-1.75-4.43-3.03q-1.08-0.95-2.02-2.21c-0.32-0.42-0.58-0.83-0.89-1.38l-0.41-0.82-0.22-0.51c-1.23-3.24-2.07-5.96-2.86-9.05-0.76-3.02-1.37-6.11-1.7-9.32-0.14-1.61-0.25-3.24-0.19-4.93 0.02-1.69 0.2-3.37 0.66-5.44l0.31-1.1 0.15-0.53 0.27-0.76 0.83-2.21c0.6-1.49 1.3-3.03 2.12-4.51 3.45-5.92 7.58-10.13 11.4-14.71l1.45-1.67c0.45-0.55 0.71-0.88 1.08-1.4 0.7-1.02 1.38-2.16 2.04-3.36 1.31-2.39 2.5-5 3.63-7.63 2.28-5.27 4.31-10.74 6.23-16.25 3.84-11.04 7.25-22.29 10.36-33.6 1.55-5.65 3.02-11.33 4.34-17 1.3-5.7 2.62-11.35 3.1-16.69 0.51-5.41 0.24-11.06-0.08-16.93-0.29-5.88-0.68-12.05-0.07-18.57 0.37-3.32 0.83-6.43 2-10.06 0.26-0.92 0.51-1.45 0.77-2.19l0.39-1.04 0.14-0.37 0.07-0.14 0.13-0.28 0.26-0.58c0.68-1.54 1.46-3.02 2.29-4.48 3.37-5.8 7.85-10.66 12.24-14.88 4.42-4.29 8.69-7.95 11.73-12.06 1.32-1.76 2.54-4 3.14-6q0.33-1.12 0.47-2.2l-1.53-0.27-3.23-0.79-3.15-1q-3.1-1.12-6.03-2.56-2.9-1.48-5.62-3.23-2.68-1.8-5.16-3.83-2.45-2.08-4.67-4.36-2.18-2.32-4.13-4.83l-1.91-2.64-1.64-2.59q-1.59-2.72-2.92-5.54-1.29-2.85-2.32-5.77-0.99-2.94-1.73-5.93-0.7-3-1.17-6.03c-1.18-8.08-0.94-16.25 0.54-24.12l0.43-2.29 0.94 2.15q2.14 4.79 4.82 9.2 1.37 2.2 2.87 4.28 1.53 2.06 3.17 4.01 3.26 3.94 7.1 7.2 1.93 1.62 3.96 3.07l2.02 1.34 2.25 1.35 2.12 1.12 2.22 1.05q2.25 0.99 4.57 1.78 2.33 0.76 4.71 1.3 2.38 0.5 4.79 0.81 2.4 0.28 4.81 0.34 2.4 0.01 4.78-0.2 2.37-0.26 4.69-0.75c0.48-0.12 0.95-0.28 1.44-0.41 0.12-0.42 0.24-0.83 0.45-1.2 0.99-1.93 2.29-2.9 3.41-3.69 2.07-1.47 5.21-2.21 5.11-2.38 0.89-0.42 2.39-1.98 5.39-3.06 1.85-0.53 3.67-1.18 5.55-1.59 3.74-0.86 7.55-1.49 11.37-1.64 3.81-0.23 7.61-0.11 11.37 0.24 7.52 0.75 14.88 2.37 21.87 4.84 3.53 1.18 6.92 2.55 10.34 4.06 1.76 0.76 3.33 1.52 4.93 2.28 1.76 0.88 3.32 1.67 4.91 2.52 6.27 3.38 12.16 6.63 18.04 7.85 0.74 0.15 1.46 0.28 2.07 0.35 0.53 0.11 1.61 0.13 2.44 0.19 0.39 0.02 1.23 0 1.64-0.07 0.52-0.08 0.73-0.14 1.05-0.27 0.58-0.2 1.97-1.31 3.24-2.39 1.29-1.04 2.51-2.16 3.71-3.3 4.83-4.52 9-9.71 12.14-15.42 1.58-2.85 2.75-5.88 3.66-8.99 0.89-3.13 1.29-6.37 1.33-9.7l0.17-12.74 4.24 11.49v0.01c1.92 4.38 3.86 8.84 5.34 13.54 0.73 2.34 1.35 4.75 1.77 7.21q0.3 1.83 0.47 3.76c0.08 1.16 0.11 2.48 0.1 3.71-0.27 10.1-4.33 19.33-9.07 27.66-2.38 4.14-4.93 8.36-8.4 11.86-3.49 3.5-7.86 5.97-12.45 7.51-9.29 2.99-19.04 2.75-28.53 2.39 9.49-0.02 19.25-0.21 28.14-3.48 4.4-1.68 8.44-4.21 11.58-7.62 3.14-3.43 5.44-7.57 7.63-11.78 4.32-8.34 7.77-17.38 7.62-26.55-0.04-1.16-0.1-2.22-0.24-3.44q-0.2-1.63-0.55-3.32c-0.48-2.24-1.14-4.44-1.92-6.62q-0.41-1.12-0.86-2.22c-0.42 3.68-1.44 7.27-2.78 10.69-2.95 7.09-7.33 13.46-12.54 18.9-1.32 1.36-2.65 2.69-4.07 3.93-0.73 0.64-1.35 1.24-2.17 1.9-0.81 0.66-1.8 1.41-3.07 2.07-1.27 0.66-2.78 1.08-4.01 1.27-1.34 0.19-2.28 0.25-3.65 0.22-0.94-0.05-1.64-0.02-2.86-0.17-1.15-0.1-2.18-0.27-3.17-0.45-4.04-0.75-7.75-2.13-11.22-3.65-3.45-1.53-6.69-3.22-9.8-4.82l-4.55-2.31c-1.6-0.77-3.21-1.54-4.71-2.18-3.06-1.35-6.24-2.62-9.43-3.69-3.18-1.12-6.42-2-9.66-2.82q-4.88-1.19-9.81-1.77c-3.28-0.37-6.57-0.55-9.83-0.42q-4.9 0.14-9.67 1.08c-1.6 0.28-3.13 0.78-4.71 1.15-0.41 0.01-1.6 0.91-3.82 2.17-0.55 0.3-1.22 0.6-1.95 0.84l-1.24 0.39c-0.48 0.16-1.1 0.42-1.41 0.61-0.34 0.18-0.46 0.39-0.26 0.05 0.2-0.33 0.16-1.23 0.03-1.28l-2.8 6.09q-2.8 0.84-5.67 1.34-2.87 0.45-5.76 0.6-2.88 0.11-5.75-0.06-2.85-0.22-5.66-0.7-2.8-0.54-5.53-1.33-2.71-0.84-5.32-1.9-2.6-1.1-5.09-2.42c-1.68-0.92-3.16-1.87-4.83-3.01l-2.12-1.58-2.21-1.8q-2.1-1.83-4.03-3.8-3.83-3.99-6.89-8.52c-2-3.04-3.71-6.24-5.18-9.52q-1.08-2.47-1.99-4.99-0.17-0.56-0.33-1.11c-0.16 6.44 0.48 12.87 2.04 19.01q0.74 2.8 1.67 5.52 0.98 2.7 2.17 5.29 1.22 2.58 2.65 5.02 1.46 2.42 3.12 4.68l1.8 2.26 1.79 2q1.93 2.01 4.03 3.82 2.13 1.77 4.39 3.32 2.3 1.51 4.71 2.78 2.43 1.23 4.94 2.2 2.53 0.92 5.11 1.56l2.59 0.53 2.61 0.36 2.6 0.18 2.58-0.01h3.15l1.77 3.12 0.02 0.04 0.12 0.23 0.08 0.22c0.25 0.65 0.28 0.82 0.38 1.16l0.2 0.87q0.17 0.83 0.26 1.61c0.12 1.06 0.14 2.07 0.11 3.07-0.08 2-0.43 3.91-0.95 5.72-1.08 3.68-2.68 6.73-4.84 9.76-0.46 0.61-0.82 1.14-1.38 1.83-0.56 0.67-1.16 1.41-1.71 2.03-1.09 1.22-2.2 2.35-3.31 3.46l-6.43 6.17c-4.13 3.96-7.66 7.97-10.29 12.4-0.64 1.11-1.26 2.23-1.78 3.4l-0.21 0.43-0.1 0.22-0.04 0.07-0.37 0.97c-0.23 0.65-0.6 1.47-0.72 1.98-0.66 2.01-1.19 4.75-1.48 7.31-1.14 10.56 1.04 22.66-0.39 35.42-0.73 6.44-2.27 12.32-3.7 18.12-1.48 5.82-3.09 11.57-4.78 17.3-3.39 11.45-7.07 22.79-11.24 34.02-2.09 5.62-4.28 11.21-6.81 16.75-1.26 2.78-2.58 5.54-4.16 8.3-0.79 1.39-1.65 2.78-2.66 4.18-0.49 0.68-1.17 1.5-1.68 2.07l-1.48 1.65c-3.87 4.38-8.08 8.74-10.64 13.04-0.64 1.1-1.2 2.25-1.72 3.49l-0.77 1.93-0.1 0.25-0.04 0.12-0.02 0.04-0.12 0.4c-0.11 0.34-0.25 0.74-0.32 1.03-0.15 0.82-0.39 2.08-0.41 3.36-0.07 1.26-0.01 2.59 0.07 3.92 0.45 5.3 1.91 11.13 3.63 16.08 1.01 3.13 6.82 5.85 11.65 7l1.65 0.4 0.82 1.39c2.01 3.39 4.51 6.9 7.2 9.59 1.35 1.36 2.81 2.48 4.08 2.97 0.5 0.18 1.44 0.37 2.4 0.52q1.45 0.2 3 0.32c4.11 0.3 8.39 0.28 12.64 0.11 4.25-0.17 8.51-0.5 12.7-1.04 4.12-0.56 8.49-1.26 11.87-2.61 3.31-1.62 7.02-4.18 10.47-6.6 3.55-2.49 6.81-5.04 10.53-7.76l0.2-0.14 0.1-0.07 0.32-0.18 0.05-0.03c-0.02-0.03 1.04-0.4 1.02-0.36 0.45-0.1 0.75-0.13 1.08-0.18l0.11-0.01c0 0 35.33-7.67 60.55-9.37 25.21-1.71 38.86-0.38 47.02-11.95 0 0-2.28 11.38-20.67 15.36-18.39 3.98-29.28-0.89-85.93 11.41"/>
				<path id="&lt;Path&gt;" class="s0" d="m283.76 593.12c-0.25-2.11-0.53-3.29-0.53-3.29 0 0 0.1 1.21 0.04 3.32-0.05 2.09-0.31 5.09-1.19 8.53-0.44 1.69-1.01 3.58-1.84 5.32-0.83 1.77-1.98 3.31-3.55 4.62-1.57 1.32-3.42 2.36-5.48 3.29-2.04 0.89-4.18 1.61-6.36 2.09-2.16 0.47-4.41 0.74-6.5 0.76-2.22 0.03-4.29-0.14-6.34-0.48-4.08-0.69-7.83-1.93-11.04-3.17-3.2-1.24-5.88-2.47-7.76-3.32-1.91-0.87-3-1.37-3-1.37l-1.86 4.98c3.06 2.05 5.13 5.1 7.1 8.2q1.31 0.33 2.78 0.67c3.71 0.83 8.2 1.63 13.13 1.73 2.45 0.04 5.07-0.13 7.57-0.54 2.64-0.42 5.13-1.12 7.58-2.05 2.44-0.92 4.75-2.1 6.89-3.45 2.1-1.34 4.17-2.93 5.81-4.79 1.68-1.85 2.87-4.12 3.48-6.23 0.64-2.13 0.92-4.09 1.14-5.95 0.38-3.69 0.18-6.76-0.07-8.87z"/>
				<path id="&lt;Path&gt;" class="s0" d="m240.1 606.03c6.84-2.72 12.4-8.48 14.89-15.4 0.55-1.51 0.98-3.12 2.03-4.34 1.05-1.22 2.98-1.88 4.3-0.95 0.78 0.55 1.16 1.51 1.42 2.43 1.19 4.14 0.96 8.6-0.18 12.75-0.92 3.37-2.52 6.69-5.24 8.89-4.8 3.91-12.33 3.26-17.18-0.59-0.52-0.42-1.05-0.91-1.19-1.57-0.14-0.65 0.31-1.46 0.97-1.44"/>
				<path id="&lt;Path&gt;" class="s0" d="m253.7 579.14l-4.58 0.65c-3.5 0.49-6.86-0.76-9.67-2.6l-1.05-0.74-0.99-0.78q-0.99-0.81-1.94-1.71c-1.28-1.2-2.52-2.49-3.81-3.81l-2.01-1.99c-0.7-0.68-1.49-1.38-2.33-2.03-1.7-1.3-3.72-2.59-6.5-3.18q-1.04-0.21-2.18-0.23-0.26 0.94-0.78 1.9c-1.73 3.12-2.85 6.51-3.97 9.92l2.1 1.58 1.2-2.02q0.54-0.87 0.96-1.37c0.2-0.33 0.64-0.59 0.52-0.68 0.16-0.06 0.55-0.2 0.53-0.2 0 0-0.09-0.04 0.01-0.07q0.23-0.09 0.55-0.14c0.85-0.12 2.21 0.19 3.59 0.82 0.7 0.31 1.4 0.68 2.14 1.12l2.29 1.39c1.54 0.97 3.12 1.99 4.79 2.95q1.25 0.72 2.57 1.36l1.36 0.62 1.37 0.54c2.74 0.99 5.78 1.5 8.66 1.1l-1.2 0.82 4.06-1.56q0.01 0 0.01-0.01l0.1-0.04z"/>
				<path id="&lt;Path&gt;" class="s0" d="m416.82 387.85c0.7-2.71 2.08-5.29 3.82-7.57 1.76-2.28 3.87-4.26 6.05-6.1 4.39-3.66 8.95-6.78 13.41-10.16 4.47-3.36 9.03-6.56 13.55-9.84 4.58-3.28 8.91-6.5 13.8-9.71 2.46-1.59 5.12-3.11 8.06-4.31 2.93-1.2 6.13-1.99 9.15-2.41 3.06-0.43 6.07-0.51 8.98-0.52l4.3 0.06 4.3 0.2c5.56 0.28 11.13 0.49 16.7 0.84l16.68 1.04 24.4 1.53-22.86 9.24c-1.85 0.74-3.5 2.13-4.97 4.33-1.45 2.18-2.71 4.91-3.87 7.87-1.16 2.97-2.29 6.24-3.62 9.51q-1.96 4.87-4.28 9.62c-3.08 6.36-6.88 12.46-11.45 18.04-2.32 2.82-4.69 5.37-7.43 7.87-2.73 2.48-5.56 4.72-8.67 6.65-6.15 3.89-13.03 6.76-20.28 8.01-3.6 0.64-7.36 0.76-10.94 0.52-3.6-0.26-7.07-0.85-10.45-1.55-3.38-0.69-6.65-1.58-9.9-2.32-3.27-0.77-6.49-1.39-9.74-1.77-3.26-0.39-6.56-0.5-9.84-0.14-3.27 0.34-6.51 1.22-9.57 2.72 2.68-2.1 5.87-3.58 9.22-4.54 3.36-0.91 6.85-1.33 10.33-1.45 3.49-0.1 6.98 0.17 10.37 0.52l10.06 1.11c3.29 0.35 6.53 0.57 9.68 0.48 3.17-0.09 6.17-0.58 9.18-1.31 5.99-1.49 11.63-4.32 16.64-8.01 2.48-1.86 4.91-3.87 7.08-6.04 2.16-2.14 4.3-4.64 6.15-7.12 3.78-5.05 6.9-10.63 9.69-16.43q2.06-4.38 3.82-8.94c1.18-3 2.21-6.12 3.45-9.46 1.25-3.34 2.73-6.84 5.1-10.24 2.3-3.38 5.88-6.73 10.39-8.37l1.54 10.77-16.67-1.29c-5.56-0.42-11.1-0.99-16.66-1.48l-4.04-0.36-4.05-0.23c-2.66-0.12-5.24-0.12-7.72 0.07-2.51 0.18-4.8 0.58-7.1 1.32-2.28 0.74-4.58 1.82-6.9 3.1-2.31 1.26-4.68 2.73-7.09 4.15l-7.24 4.2c-4.84 2.78-9.62 5.64-14.51 8.34l-7.3 4.1c-2.44 1.39-4.87 2.69-7.21 4.11-2.35 1.41-4.56 2.99-6.58 4.82-2.02 1.83-3.76 3.98-4.96 6.53z"/>
				<path id="&lt;Path&gt;" class="s0" d="m417.3 411.22q0-0.01 0.42-1.38c0.33-0.88 0.81-2.25 1.7-3.81 1.68-3.2 4.96-7.41 9.77-11.39 4.78-4.04 11.03-7.62 17.17-11.3 3.07-1.86 6.11-3.78 8.89-5.89l2.14-1.71c0.76-0.62 1.31-1.16 1.99-1.72 1.32-1.17 2.7-2.46 4.03-3.78q4.14-4.11 8.21-8.16c2.8-2.76 5.75-5.45 8.87-7.86 3.11-2.42 6.43-4.51 9.8-6.1 1.7-0.71 3.45-1.48 5.03-1.92 1.79-0.56 3.37-0.89 4.98-1.17 6.39-0.97 11.67-0.17 15.11 0.84 1.74 0.46 3.03 1.03 3.91 1.39 0.85 0.41 1.31 0.63 1.31 0.63q-0.01 0-1.44 0.01c-0.94 0-2.31 0.08-4 0.21-3.38 0.3-8.12 1.13-13.15 3.26-1.23 0.54-2.58 1.13-3.73 1.81-1.38 0.73-2.53 1.52-3.83 2.37-2.5 1.76-4.97 3.89-7.44 6.29-4.96 4.78-9.87 10.76-15.73 16.52-1.49 1.42-3 2.8-4.65 4.2-0.82 0.68-1.73 1.46-2.52 2.02l-2.52 1.8c-3.51 2.4-7.13 4.23-10.59 5.82-6.93 3.14-13.2 5.38-18.26 7.91-5.1 2.45-9.03 5.1-11.6 7.32-1.27 1.12-2.25 2.04-2.89 2.73q-0.97 1.05-0.98 1.06z"/>
				<path id="&lt;Path&gt;" class="s0" d="m343.59 456.22c2.79-2.18 5.23-4.82 7.17-7.79 0.6-0.93 1.18-1.91 2.04-2.61 0.89-0.72 2.01-1.09 3.12-1.36 3.88-0.98 7.91-1.1 11.91-1.21q6.44-0.19 12.87-0.37c-1.58 1.13-3.16 2.31-4.35 3.85-3.5 4.57-2.87 11.55-6.88 15.69-2.32 2.4-5.9 3.36-9.21 2.93-3.31-0.44-6.36-2.13-8.86-4.35-1.46-1.3-2.93-2.86-4.88-3.07-0.93-0.1-1.91 0.13-2.8-0.18-0.89-0.31-1.53-1.56-0.81-2.18"/>
				<path id="&lt;Path&gt;" class="s0" d="m440.8 455.62c0 0-0.02 2.58-0.28 7.04-0.27 4.47-0.72 10.84-1.64 18.42-0.85 7.61-2.18 16.43-4.05 25.82-0.94 4.71-2 9.53-3.25 14.44-1.21 4.87-2.65 9.92-4.51 14.94q-1.43 3.76-3.24 7.43c-0.58 1.18-1.29 2.52-1.93 3.58-0.73 1.25-1.44 2.38-2.25 3.54-3.07 4.59-7.45 8.83-12.31 11.44-4.83 2.68-9.82 3.98-14.42 4.69-4.61 0.72-8.95 0.78-12.79 0.71-3.9-0.01-7.36-0.25-10.43-0.38-3.07-0.09-5.74-0.21-7.94-0.19-2.2 0.04-3.95 0.09-5.14 0.17-1.2 0.08-1.84 0.13-1.84 0.13 0 0 2.28-1.22 6.64-2.53 4.33-1.35 10.8-2.51 18.19-3.68 3.72-0.64 7.59-1.42 11.49-2.56 3.88-1.14 7.73-2.72 11.05-4.96q0.65-0.42 1.15-0.83l0.53-0.41 0.69-0.57q1.13-0.94 2.16-2.06 2.05-2.27 3.82-5.05c0.58-0.91 1.16-1.92 1.66-2.86 0.59-1.12 1.05-2.01 1.57-3.11 1.01-2.08 1.91-4.26 2.74-6.5 1.72-4.45 3.1-9.14 4.54-13.87 1.39-4.73 2.76-9.39 4.09-13.89 2.65-9.05 5.13-17.53 7.44-24.78 2.22-7.27 4.28-13.31 5.78-17.52 1.5-4.22 2.48-6.6 2.48-6.6z"/>
				<path id="&lt;Path&gt;" class="s0" d="m671.64 572.21c-2.39-2.02-5.97-1.73-7.99 0.66 0 0-0.57 0.67-1.64 1.93-1.05 1.27-2.67 3.08-4.49 5.54-1.9 2.4-4.03 5.43-6.4 8.93-2.32 3.53-4.84 7.55-7.39 12.02-5.15 8.9-10.47 19.52-16.24 30.69-2.9 5.57-5.91 11.3-9.23 16.94-1.63 2.87-3.32 5.57-5.12 8.39l-2.78 4.21-2.86 3.99q-0.03 0.04-0.05 0.07c-4.45 8.59-9.59 16.81-15.59 24.41-0.49 0.62-1.01 1.19-1.51 1.78q0.18 0.21 0.35 0.42c7.15-7.24 14.53-14.88 21.28-23.22l3.24-4.05 2.99-4.05c1.96-2.74 3.97-5.61 5.77-8.41 3.7-5.61 7.07-11.27 10.29-16.73 6.41-10.96 12.2-21.14 17.62-29.46 2.68-4.18 5.28-7.87 7.64-11.09 2.41-3.17 4.54-5.89 6.41-8.01 1.8-2.2 3.37-3.76 4.39-4.86 1.03-1.1 1.58-1.69 1.58-1.69l0.21-0.22q0.09-0.1 0.18-0.2c2.02-2.39 1.73-5.97-0.66-7.99z"/>
				<path id="&lt;Path&gt;" class="s0" d="m676.67 527.28c0 0-0.15 0.54-0.44 1.55-0.29 0.99-0.81 2.48-1.22 4.33-0.51 1.81-0.87 4.09-1.36 6.64q-0.22 1.93-0.48 4.09-0.14 2.15-0.3 4.51c-0.02 3.15 0.05 6.52 0.49 10.03 0.32 3.51 1.14 7.13 2.09 10.79 1.03 3.66 2.45 7.28 4.1 10.83 1.79 3.49 3.84 6.87 6.24 10l1.96 2.35c0.72 0.92 1.36 1.48 2.01 2.16 1.22 1.34 2.76 2.66 4.19 3.98 3.05 2.46 6.2 4.75 9.49 6.63 3.31 1.82 6.62 3.51 9.95 4.68 3.29 1.29 6.54 2.17 9.59 2.94q2.33 0.42 4.45 0.81 2.16 0.29 4.09 0.55c2.58 0.16 4.88 0.36 6.79 0.31 1.92 0.05 3.42-0.07 4.47-0.11 1.05-0.03 1.61-0.04 1.61-0.04 0 0-0.51 0.23-1.46 0.68-0.96 0.38-2.35 1.16-4.26 1.69-0.94 0.29-1.99 0.68-3.15 0.98-1.17 0.29-2.45 0.52-3.82 0.82q-2.09 0.28-4.43 0.59c-1.58 0.14-3.24 0.12-4.99 0.19-3.47-0.1-7.29-0.32-11.23-1.21-3.98-0.76-8.05-2.15-12.14-3.91-4.06-1.82-8.06-4.19-11.84-7.03-1.82-1.53-3.7-2.93-5.45-4.81-0.87-0.88-1.85-1.82-2.49-2.62l-2.28-2.68c-2.91-3.88-5.39-8.05-7.28-12.39-1.81-4.36-3.15-8.82-3.9-13.21-0.7-4.4-1.05-8.68-0.8-12.72 0.1-4.04 0.83-7.8 1.58-11.19 0.5-1.68 0.88-3.29 1.41-4.78q0.88-2.19 1.66-4.15c0.62-1.26 1.16-2.44 1.73-3.5 0.58-1.06 1.22-2 1.73-2.85 0.99-1.73 2.06-2.83 2.67-3.68 0.67-0.82 1.02-1.25 1.02-1.25z"/>
				<path id="&lt;Path&gt;" class="s0" d="m722.14 614.44c0 0 2.76-1.92 4.81-0.65 2 1.26 5.08 3.21 8.51 5.57 6.96 4.68 15.92 11.37 24.37 18.6 8.44 7.23 16.36 14.97 21.99 21.04 2.84 3.01 5.12 5.59 6.69 7.41 1.58 1.83 2.47 2.87 2.47 2.87 0 0-1.02-0.92-2.81-2.52-1.8-1.6-4.38-3.86-7.56-6.47-6.32-5.26-15.07-11.85-24.18-17.8-9.12-5.96-18.58-11.28-25.83-14.9-3.65-1.86-6.57-3.23-8.79-4.25-2.19-1-13.57-6.63-13.57-6.63"/>
				<path id="&lt;Path&gt;" class="s0" d="m799.52 670.36q0 0-0.46 0.62c-0.36 0.39-0.63 0.97-0.98 1.7-0.68 1.48-1 3.63-0.65 5.93 0.16 1.14 0.51 2.33 1.01 3.42q0.38 0.82 0.85 1.52c0.09 0.02 0.47 0.74 0.62 0.91l0.57 0.67c1.7 2.1 4.17 4.13 7.02 6.25q2.24 1.67 4.45 3.31c1.48 1.09 2.94 2.25 4.34 3.36 2.8 2.22 5.38 4.41 7.58 6.4 2.19 1.99 4 3.78 5.24 5.11 1.25 1.32 1.93 2.17 1.93 2.17 0 0-4.36 0.12-10.29-1.5-2.97-0.8-6.33-2-9.76-3.65-1.72-0.82-3.45-1.72-5.17-2.77-1.72-0.99-3.37-2.11-5.11-3.37-3.38-2.56-6.81-5.92-8.84-10.18-0.25-0.49-0.51-1.13-0.75-1.72-0.25-0.63-0.22-0.73-0.48-1.52-0.3-1.19-0.53-2.33-0.56-3.45-0.1-2.22 0.26-4.25 0.89-6 1.28-3.52 3.71-5.74 5.58-6.52 0.88-0.45 1.76-0.61 2.2-0.64q0.77-0.05 0.77-0.05z"/>
				<path id="&lt;Path&gt;" class="s0" d="m812.28 670.77c0 0 2.77 3.57 7.61 9.81 2.42 3.1 5.36 6.86 8.74 11.18q2.57 3.2 5.44 6.8c1.95 2.36 3.92 5.01 6.04 7.28 2.14 2.29 4.58 4.45 7.17 5.67 1.29 0.6 2.56 0.96 3.79 0.99 0.31-0.02 0.61 0.03 0.92-0.03 0.23-0.04 0.76-0.07 0.75-0.11 0.39-0.11 1.1-0.22 1.23-0.33 0.22-0.13 0.35-0.12 0.66-0.31 2.22-1.09 4.27-3.59 5.92-6.74 1.64-3.12 3.06-6.89 4.59-10.82 3.02-7.76 5.54-15.57 6.2-23.57 0.61-7.61-1.13-15.78-5.72-21.13-1.15-1.4-2.65-2.89-4.32-4.66-0.84-0.88-1.7-1.85-2.55-2.93-0.44-0.57-0.78-1.03-1.29-1.79l-0.47-0.75-0.58-0.99c-1.35-2.45-2.24-4.9-2.97-7.18q-0.97-3.26-1.94-6.51c-2.56-8.47-4.76-16.91-7.07-25.02-2.3-8.11-4.34-16.01-6.3-23.49-2.01-7.47-3.77-14.58-5.37-21.14-3.27-13.1-5.74-24.1-7.41-31.82-1.67-7.72-2.5-12.16-2.5-12.16 0 0 1.78 4.16 4.66 11.51 2.89 7.35 6.93 17.87 11.47 30.59 2.3 6.35 4.77 13.24 7.24 20.57 2.51 7.32 5.19 15.02 7.76 23.05 2.58 8.03 5.42 16.27 7.99 24.75 1.36 4.28 2.48 8.54 4.16 11.4 1.44 2.76 4.67 5.24 8.21 9.34 3.47 4.25 5.71 9.27 6.9 14.3 1.19 5.09 1.44 10.05 0.98 15.14-0.89 9.71-4.52 18.47-7.88 26.27-1.72 3.83-3.29 7.84-5.76 11.73-2.4 3.79-5.66 7.77-10.62 9.79-0.55 0.26-1.37 0.47-2.05 0.66-0.77 0.22-1.03 0.19-1.57 0.3-1.59 0.22-2.65 0.19-3.98 0.06-2.52-0.29-4.81-1.19-6.7-2.35-3.79-2.34-6.34-5.31-8.53-8.15-2.19-2.93-3.85-5.64-5.5-8.27q-2.41-3.97-4.55-7.51c-2.85-4.71-5.17-8.93-7.07-12.39-1.92-3.46-3.29-6.26-4.26-8.14-0.96-1.89-1.47-2.9-1.47-2.9z"/>
				<path id="&lt;Path&gt;" class="s0" d="m761.66 392.02l1.36-7.48c0 0-4.53-0.59-12.44-1.62-1.98-0.24-4.17-0.58-6.56-0.81q-3.59-0.31-7.75-0.66-4.15-0.35-8.81-0.75c-3.1-0.19-6.38-0.28-9.78-0.44-3.41-0.11-6.96-0.35-10.64-0.37q-5.51 0-11.38 0.01c-3.9-0.05-7.91 0.1-12 0.31-4.09 0.2-8.27 0.32-12.51 0.6-8.48 0.77-17.24 1.35-26.07 2.65-8.86 0.98-17.75 2.73-26.66 4.23-8.83 1.95-17.7 3.65-26.26 6.06-8.64 2.08-16.95 4.82-25.03 7.26-4.01 1.32-7.9 2.77-11.73 4.1-3.84 1.32-7.58 2.67-11.14 4.17q-5.38 2.17-10.44 4.21c-3.36 1.37-6.52 2.91-9.59 4.27-3.06 1.41-6.02 2.7-8.78 4.02q-4.11 2.08-7.78 3.94-3.65 1.86-6.82 3.46c-2.09 1.09-3.95 2.21-5.66 3.15-6.82 3.85-10.72 6.05-10.72 6.05 0 0 4-2 11.01-5.51 1.76-0.86 3.67-1.88 5.81-2.87q3.24-1.44 6.97-3.11 3.73-1.66 7.91-3.53c2.82-1.18 5.83-2.32 8.94-3.56 3.12-1.2 6.33-2.57 9.73-3.78q5.12-1.77 10.56-3.65c3.61-1.32 7.37-2.47 11.24-3.59 3.86-1.13 7.78-2.37 11.81-3.48 8.11-2.02 16.43-4.31 25.05-5.95 8.54-1.95 17.36-3.19 26.12-4.68 8.84-1.04 17.63-2.32 26.36-2.85 8.7-0.85 17.3-1 25.6-1.34 4.15-0.07 8.24 0.02 12.23 0.02 4-0.01 7.9 0.03 11.7 0.28q5.7 0.27 11.06 0.53c3.57 0.19 7 0.6 10.3 0.87 3.3 0.32 6.47 0.56 9.47 0.89q4.48 0.61 8.49 1.15 4 0.54 7.46 1.01c2.3 0.34 4.39 0.77 6.29 1.1 1.57 0.28 2.97 0.53 4.26 0.77 1.21-3.84 5.11-5.36 8.82-5.08z"/>
				<path id="&lt;Path&gt;" class="s0" d="m776.54 415.64l3.44 0.69q1.7 0.48 3.42 1.04l3.32 1.31 3.21 1.61c2.09 1.18 4.16 2.42 6.08 3.87q2.89 2.17 5.56 4.6c1.79 1.62 3.43 3.38 5.04 5.16q2.38 2.7 4.58 5.54c1.45 1.9 2.79 3.88 4.12 5.86 1.3 2.01 2.54 3.99 3.79 6.08 2.35 3.96 4.53 8.26 6.68 12.31l6.4 12.2q1.6 3.01 3.28 5.95c1.15 1.93 2.26 3.88 3.46 5.78q1.8 2.82 3.76 5.52c1.34 1.77 2.69 3.53 4.1 5.24l6.24 7.55-9.19-1.92c-3.68-0.77-7.27-1.89-10.61-3.5-3.34-1.62-6.5-3.55-9.32-5.89l2.74-2.69c1.33 2.52 2.72 4.99 4 7.55l0.94 1.88-1.84-0.16c-2.93-0.24-5.86-0.51-8.79-0.88 2.91-0.51 5.82-0.94 8.73-1.34l-0.89 1.73c-1.86-2.17-3.6-4.42-5.41-6.62l-6.28-7.68 9.02 4.99c2.94 1.63 5.98 3.01 9.14 3.97 3.15 0.97 6.35 1.7 9.58 1.99l-2.95 5.63-2.57-2.58-2.4-2.71q-2.32-2.79-4.45-5.7c-1.39-1.96-2.77-3.91-4.02-5.94q-1.88-3.04-3.64-6.12-3.44-6.19-6.5-12.43l-3.1-6.19-3.14-6.13c-1.01-1.96-2.1-3.98-3.2-5.94-1.11-1.96-2.3-3.87-3.48-5.78q-1.78-2.86-3.72-5.61c-1.31-1.82-2.7-3.56-4.09-5.32q-2.13-2.6-4.49-5l-2.42-2.34-2.55-2.23q-2.64-2.11-5.51-4l-2.95-1.75z"/>
				<path id="&lt;Path&gt;" class="s0" d="m734.69 422.58c-0.97-4.04-0.02-8.52 1.9-12.38 0.49-0.98 1.01-1.89 1.65-2.84 0.54-0.82 1.26-1.77 1.92-2.59 1.36-1.67 2.83-3.24 4.35-4.7 3.12-2.87 6.2-5.43 9.27-8.12l9.37-7.79c6.24-5.2 12.64-10.19 19.04-15.18 6.43-4.94 12.9-9.82 19.45-14.61l11.05-8.06-2.1 13.3c-0.33 2.1-0.68 4.2-1.25 6.22-0.52 2.03-1.19 4.02-1.97 5.91-1.52 3.82-3.36 7.41-5.4 10.74-4.02 6.74-8.59 12.7-12.66 18.74-1.04 1.51-1.99 3.03-2.94 4.56-0.88 1.53-1.86 3.1-2.71 4.67-1.79 3.21-3.49 6.7-5.77 9.99-1.15 1.62-2.43 3.24-3.83 4.63-1.52 1.51-3.09 2.73-4.87 3.73-1.77 0.98-3.66 1.73-5.62 2.1-1.97 0.32-3.97 0.28-5.79-0.26 3.82-0.14 7.1-1.94 9.64-4.3 1.25-1.2 2.42-2.58 3.32-3.93 1-1.48 1.76-3.01 2.48-4.63 1.43-3.23 2.58-6.68 3.87-10.3 0.66-1.85 1.39-3.61 2.21-5.42 0.83-1.76 1.67-3.53 2.57-5.23 3.53-6.87 7.53-13.21 10.87-19.53 0.84-1.58 1.59-3.18 2.33-4.75 0.7-1.58 1.4-3.16 1.95-4.75 0.6-1.59 1.04-3.19 1.46-4.78 0.43-1.59 0.66-3.19 0.91-4.79l8.95 5.23c-6.5 4.85-13.09 9.58-19.71 14.27-6.65 4.64-13.31 9.28-20.13 13.69l-10.2 6.65c-3.43 2.17-6.98 4.29-10.22 6.45-1.64 1.07-3.23 2.18-4.7 3.4-0.76 0.64-1.4 1.19-2.15 1.94-0.63 0.63-1.29 1.37-1.91 2.08-2.42 2.94-4.26 6.53-4.63 10.64z"/>
				<path id="&lt;Path&gt;" class="s0" d="m740.53 408.59c0 0-0.83-0.23-2.4-0.66-0.75-0.2-1.82-0.52-2.81-0.75q-1.5-0.35-3.43-0.8c-2.7-0.55-6.04-1.17-9.91-1.61-3.87-0.46-8.28-0.71-13.12-0.73-9.66 0.04-21.07 1.37-32.84 4.85-5.89 1.73-11.83 4-17.81 6.74-5.99 2.74-12.01 5.89-18.05 9.14-12.07 6.51-24.36 13.38-36.77 18.1-6.18 2.39-12.38 4.22-18.37 5.4-6.02 1.18-11.76 1.66-17.1 1.51-10.67-0.23-19.27-2.92-24.75-5.58-2.76-1.33-4.79-2.59-6.15-3.49-1.33-0.93-2.03-1.43-2.03-1.43 0 0 0.75 0.43 2.15 1.24 1.42 0.77 3.55 1.84 6.37 2.89 5.6 2.13 14.16 3.97 24.33 3.27 5.04-0.3 10.53-1.27 16.05-2.88 5.56-1.62 11.24-3.88 16.91-6.68 11.38-5.54 22.59-13.19 34.11-20.84 5.78-3.82 11.66-7.61 17.74-11.09 6.07-3.48 12.4-6.59 18.74-9.09 12.71-5.05 25.42-7.74 36.49-8.77 5.54-0.48 10.66-0.65 15.22-0.52 4.56 0.1 8.52 0.46 11.82 0.84q2.55 0.36 4.53 0.64c1.33 0.19 2.2 0.38 3.03 0.52 1.6 0.29 2.46 0.45 2.46 0.45z"/>
				<path id="&lt;Path&gt;" class="s0" d="m743.7 405.13c1.4-1.33 3-2.46 4.65-3.46q0.97-0.57 1.93-1.15 0.52-0.33 1.05-0.68c0.88-0.56-0.13 0.12-0.43 0.36q0.55-0.43 1.1-0.79l2.34-9.18c0 0-1.4-0.14-3.86-0.39-1.57-0.11-3.08-0.07-4.93 0.12-1.8 0.19-3.75 0.54-5.72 1.1-3.97 1.1-8.01 2.94-11.83 5.08-3.86 2.19-7.45 4.44-11.35 6.98-3.84 2.54-7.66 5.5-10.64 8.89l-0.55 0.64-0.32 0.37-0.23 0.3q-0.48 0.64-0.95 1.27c-0.68 0.94-1.21 1.81-1.71 2.72-0.99 1.8-1.71 3.59-2.2 5.28-0.99 3.39-0.95 6.32-0.64 8.26q0.24 1.46 0.5 2.2 0.24 0.75 0.24 0.75 0-0.01-0.02-0.78c-0.02-0.51 0.02-1.26 0.13-2.18 0.23-1.85 0.97-4.43 2.63-7.01 0.82-1.29 1.85-2.59 3.07-3.8 0.59-0.59 1.28-1.22 1.93-1.71l1.13-0.85 0.3-0.22c-0.01 0.04 0.16-0.1 0.24-0.14l0.58-0.38c3.15-1.99 6.88-3.46 10.85-4.69 3.93-1.2 8.3-2.43 11.99-3.29 3.54-0.82 6.64-1.2 9.06-1.16 0.38-0.92 0.93-1.77 1.66-2.46z"/>
				<path id="&lt;Path&gt;" class="s0" d="m769.71 504.67c6.46 0.98 13.09 0.82 19.5-0.47 1.97-0.39 3.94-0.89 5.95-0.79 2 0.09 4.08 0.9 5.17 2.59 2.09 3.26-0.39 8.06 1.76 11.29q-6.9 0.93-13.8 1.86c-2.09 0.28-4.26 0.56-6.26-0.11-5.79-1.92-6.86-10.15-12.09-13.28"/>
				<path id="&lt;Path&gt;" class="s0" d="m847.79 693.66c-2.32-3.03-6.09-4.49-9.3-6.54-3.22-2.05-6.25-5.5-5.51-9.24 0.73-3.77 5.33-5.9 9.01-4.83 3.68 1.06 6.28 4.54 7.3 8.23 1.02 3.7 0.73 7.62 0.31 11.43"/>
				<g id="&lt;Group&gt;">
					<path id="&lt;Path&gt;" class="s0" d="m668.22 176.83c-9.82 1.42-19.06 0.91-27.75 1.18-4.35 0.09-8.58 0.29-12.69 0.9-0.75 0.11-2.29 0.38-3.15 0.59q-1.4 0.3-2.93 0.73c-2 0.58-3.99 1.23-5.93 2.03-7.8 3.18-14.99 7.71-21.39 13.74-6.12 5.56-11.5 12.65-15.58 20.19-4.04 7.63-6.99 15.93-8.28 24.54-1.42 8.61-1.1 17.43 0.81 26 1.95 8.5 5.61 16.72 10.85 23.75 2.64 3.54 5.58 6.71 9.01 9.61 3.26 2.73 7.05 5.16 10.96 7.1 7.87 3.86 16.71 5.81 25.45 5.26 8.65-0.6 17.34-3.71 23.7-9.53 1.59-1.46 3.03-3 4.28-4.82 1.23-1.76 2.26-3.56 3.11-5.58 1.67-3.97 2.55-8.3 2.55-12.65 0.1-8.73-3.63-17.28-9.99-23.4-6.31-6.19-14.88-9.96-23.8-10.12-8.83-0.18-17.94 2.98-24.09 9.43-6.18 6.36-9.58 15.58-8.15 24.44 1.37 8.7 7.44 16.85 15.75 20.17l0.1 0.04-1.1 1.43c-2.18-3.12-3.89-6.61-4.73-10.37-0.85-3.74-0.71-7.77 0.65-11.39 1.3-3.62 3.92-6.86 7.42-8.57 3.47-1.74 7.54-2.01 11.22-1.04 3.73 0.94 6.97 3.45 8.98 6.64 2.04 3.2 2.97 7.05 2.69 10.8-0.3 3.78-1.98 7.32-4.44 10.12-2.49 2.78-5.77 4.84-9.35 5.81 3.56-1.05 6.77-3.17 9.17-5.97 2.37-2.8 3.95-6.35 4.15-10 0.2-3.65-0.79-7.35-2.81-10.37-2.01-3.03-5.1-5.31-8.62-6.12-3.49-0.83-7.3-0.49-10.45 1.18-1.55 0.82-2.99 1.97-4.08 3.35-1.12 1.37-1.97 2.96-2.55 4.64-1.18 3.38-1.23 7.07-0.37 10.54 0.85 3.48 2.53 6.75 4.66 9.66l1.99 2.73-3.1-1.3-0.12-0.05c-9.06-3.51-15.67-12.03-17.34-21.61-1.67-9.54 1.84-19.63 8.46-26.63 6.65-7.15 16.44-10.84 26.09-10.83 9.68-0.06 19.39 3.91 26.45 10.59 3.55 3.33 6.54 7.33 8.56 11.82 2.08 4.49 3.11 9.42 3.22 14.34 0.1 4.93-0.78 9.88-2.61 14.51-0.89 2.28-2.13 4.56-3.52 6.63-1.34 2.02-3.03 3.95-4.82 5.66-7.27 6.9-16.98 10.57-26.73 11.47-9.8 0.82-19.71-1.15-28.58-5.26-4.44-2.09-8.58-4.6-12.5-7.74-3.72-3.01-7.29-6.52-10.31-10.34-6.08-7.69-10.54-16.55-13.24-26.01-2.58-9.41-3.62-19.42-2.57-29.21 0.89-9.83 3.62-19.47 7.85-28.44 2.17-4.45 4.59-8.82 7.56-12.83 1.4-2.06 3.02-3.96 4.6-5.89 1.63-1.86 3.56-3.93 5.24-5.55 7.05-6.75 15.67-12.57 25.13-16.19 9.46-3.63 20.1-5.23 29.9-3.94 9.85 1.31 18.83 4.77 27.11 10.13z"/>
					<path id="&lt;Path&gt;" class="s0" d="m657.96 232.57c0 0-0.79-0.26-2.17-0.71-1.33-0.42-3.28-0.93-5.55-1.34q-1.72-0.26-3.67-0.42c-1.29-0.12-2.65-0.07-4.03-0.07-1.39 0.03-2.81 0.25-4.23 0.45-1.38 0.24-2.91 0.6-4.13 0.98-1.65 0.53-2.74 0.99-4.11 1.61-1.27 0.65-2.56 1.27-3.72 2.04-2.33 1.51-4.36 3.21-6.04 4.81-1.64 1.63-2.94 3.15-3.8 4.28-0.87 1.14-1.37 1.8-1.37 1.8q0-0.01 0.07-0.59c0.07-0.39 0.09-0.99 0.28-1.69 0.31-1.45 0.95-3.5 2.22-5.76 1.25-2.25 3.14-4.71 5.65-6.84 1.27-1.05 2.65-2.08 4.18-2.93 1.46-0.83 3.37-1.61 4.79-2.08 1.87-0.56 3.5-0.89 5.28-1.08 1.74-0.16 3.46-0.11 5.1 0.03 3.28 0.32 6.23 1.25 8.55 2.39 2.33 1.13 4.02 2.44 5.11 3.46 0.57 0.47 0.91 0.93 1.19 1.21q0.4 0.44 0.4 0.45z"/>
					<path id="&lt;Path&gt;" class="s0" d="m672.79 307.97q0.01 0.01 0.74 0.52c0.45 0.38 1.21 0.8 2.03 1.33 1.77 1.03 4.27 2.23 7.37 2.96 3.05 0.78 6.66 1.22 10.44 1.12l1.39-0.07c0.55-0.02 1.18-0.03 1.59-0.09q1.48-0.15 2.98-0.31c2.05-0.27 4.18-0.57 6.34-0.99q3.34-0.6 6.62-1.2c2.23-0.42 4.5-0.77 6.72-1.06 4.5-0.59 8.89-0.75 12.66-0.36 3.78 0.38 6.87 1.28 8.9 2.13 2.04 0.86 3.07 1.59 3.07 1.59 0 0-1.2 0.24-3.3 0.66-2.05 0.44-4.85 1.13-8.08 2.16-3.24 0.99-6.96 2.29-11.04 3.63-4.12 1.34-8.67 2.72-13.58 3.61-2.46 0.4-4.99 0.72-7.54 0.78-1.28 0.06-2.51 0.02-3.88-0.07-0.71-0.03-1.21-0.1-1.78-0.15-0.71-0.05-1.29-0.19-1.93-0.28-4.99-0.84-9.38-2.84-12.57-5.28-3.21-2.44-5.13-5.27-6.07-7.3-0.5-1.04-0.74-1.89-0.87-2.45q-0.2-0.87-0.21-0.88z"/>
					<path id="&lt;Path&gt;" class="s0" d="m736.65 306.61c0 0 0.82 0.52 2.2 1.48 1.42 0.86 3.36 2.1 5.85 3.27q1.85 0.89 4.02 1.71c1.43 0.57 2.98 1.02 4.58 1.46 1.59 0.47 3.28 0.74 4.99 1.01q2.57 0.39 5.19 0.47c1.75 0.07 3.49-0.02 5.2-0.16 1.7-0.2 3.36-0.4 5-0.77 3.16-0.71 5.88-1.82 7.76-3.43 1.84-1.57 2.85-3.62 3.18-5.14 0.34-1.54 0.16-2.54 0.16-2.54q0 0 0.34 0.61c0.19 0.42 0.49 1.06 0.62 1.95 0.3 1.74 0.07 4.57-1.87 7.28-1.86 2.72-5.19 4.83-8.82 6.06-1.78 0.58-3.7 1.14-5.68 1.44-1.99 0.29-4.03 0.41-6.06 0.36-2.03-0.1-4.05-0.29-6-0.73-1.96-0.38-3.83-0.99-5.58-1.69-1.77-0.64-3.39-1.5-4.86-2.39-1.5-0.83-2.8-1.84-3.94-2.78-1.17-0.93-2.11-1.91-2.92-2.79-0.83-0.87-1.44-1.76-1.96-2.42-0.92-1.41-1.4-2.26-1.4-2.26z"/>
					<path id="&lt;Path&gt;" class="s0" d="m751.66 220.22c0 0 1.27 1.95 4.06 4.79 2.71 2.91 7.25 6.4 12.12 11.44 4.88 5.01 10.01 11.44 14.6 18.89 2.28 3.74 4.55 7.66 6.52 11.81l1.48 3.01q0.73 1.36 1.59 2.81c1.13 1.92 2.39 3.87 3.54 6.04 1.12 2.18 2.14 4.65 2.51 7.37 0.2 1.36 0.18 2.75 0.05 4.11-0.12 0.66-0.22 1.33-0.36 1.99l-0.28 0.95-0.14 0.47-0.07 0.24-0.03 0.12-0.02 0.06c-0.31 0.75-0.1 0.23-0.18 0.41-0.02 0.04-0.24 0.41-0.47 0.71-0.28 0.36-0.31 0.36-0.46 0.53-0.24 0.28-0.47 0.49-0.71 0.73q-0.71 0.67-1.44 1.26c-0.99 0.76-2 1.48-3.07 2.08-2.11 1.24-4.36 2.18-6.66 2.78q-1.74 0.44-3.48 0.66c-1.17 0.12-2.35 0.18-3.29 0.2-1.95 0.07-3.97 0.27-5.98 0.4-2.03 0.13-4.02 0.21-6.07 0.02-1.79-0.17-3.83-0.54-5.52-0.96-7.02-1.74-12.03-5.19-15.08-7.85-1.56-1.33-2.6-2.55-3.32-3.35-0.69-0.84-1.05-1.29-1.05-1.29 0 0 0.44 0.37 1.26 1.06 0.85 0.67 2.11 1.61 3.79 2.67 3.34 2.09 8.5 4.6 15.04 5.56 1.69 0.22 3.21 0.36 5.13 0.35 1.65 0.01 3.5-0.16 5.39-0.43 1.91-0.27 3.9-0.62 6.08-0.86q1.46-0.17 2.96-0.33 1.4-0.24 2.78-0.65c1.83-0.56 3.62-1.4 5.28-2.48 0.84-0.52 1.62-1.13 2.37-1.77q0.57-0.47 1.08-0.97c0.16-0.16 0.34-0.33 0.46-0.48 0.04-0.05 0.21-0.25 0.1-0.11-0.05 0.08-0.09 0.23 0.02 0.02-0.06 0.15 0.17-0.39-0.13 0.32l0.01-0.04 0.02-0.09 0.05-0.17 0.09-0.34 0.19-0.68 0.23-1.36c0.06-0.91 0.07-1.81-0.08-2.71-0.27-1.81-1.02-3.65-2.02-5.53-0.97-1.89-2.17-3.83-3.33-5.86q-0.87-1.51-1.73-3.17l-1.47-3.1c-1.9-4.01-3.8-7.95-5.88-11.63-4.1-7.39-8.55-13.94-12.74-19.26-4.2-5.31-8.26-9.49-10.55-12.88-1.19-1.65-1.96-3.06-2.46-4.02-0.5-0.96-0.73-1.49-0.73-1.49z"/>
					<path id="&lt;Path&gt;" class="s0" d="m674.23 237.44c0.95-2.02 2.96-3.28 4.87-4.43 3.21-1.93 6.76-3.94 10.48-3.42 3.49 0.48 6.26 3.07 8.77 5.54-0.35 0.45-1.05 0.26-1.6 0.12-1.58-0.39-3.35 0.05-4.56 1.15-0.7 0.64-1.22 1.48-1.93 2.11-1.69 1.48-4.14 1.58-6.39 1.59-3.15 0.01-6.69-0.16-8.81-2.49"/>
					<path id="&lt;Path&gt;" class="s0" d="m767.47 273.85c-0.01-0.03 0.28 0.31 0.71 0.58 0.45 0.32 1.06 0.6 1.73 0.81 1.44 0.43 2.88 0.5 5.18 1.1 1.11 0.31 2.4 0.8 3.5 1.57 1.23 0.84 2.04 1.9 2.47 3 0.46 1.07 0.43 2.12 0.25 2.74-0.2 0.63-0.47 0.9-0.45 0.91 0 0-0.24-0.31-0.65-0.65-0.42-0.35-1-0.67-1.65-0.92-0.67-0.21-1.45-0.44-2.15-0.55-0.83-0.18-1.74-0.35-2.84-0.65-0.54-0.16-1.12-0.33-1.71-0.58-0.29-0.12-0.57-0.25-0.9-0.42l-0.4-0.22c-0.17-0.08-0.3-0.18-0.45-0.28-1.16-0.75-2.06-1.76-2.54-2.82-0.53-1.02-0.57-2.05-0.45-2.68 0.13-0.68 0.38-0.92 0.35-0.94z"/>
					<path id="&lt;Path&gt;" class="s0" d="m734.92 317.34c-2.45 1.73-3.87 4.01-4.2 6.23-0.21 1.11 0.05 2.11 0.15 3.54 0.03 0.7 0.01 1.45-0.33 2.34-0.29 0.88-1.22 1.96-2.56 2.52l0.69-3.04c0.77 0.53 1.87 1.22 2.61 2.51 0.37 0.68 0.54 1.48 0.39 2.27-0.14 0.8-0.66 1.76-1.76 2.45-1.1 0.6-1.58 0.78-1 0.52 0.11-0.07 0.32-0.28 0.39-0.38-0.07 0.14 0.17-0.24 0.16-0.26l0.07-0.18c0.04-0.18 0.04-0.12 0.07 0.1q0.03 0.17 0.04 0.48l-0.02 0.35-0.04 0.21-0.02 0.11-0.09 0.29-0.05 0.14c-0.01 0.04 0 0.06-0.13 0.31-0.2 0.37-0.52 0.78-0.73 0.96-1.04 0.94-2.11 1.24-2.79 1.46-1.38 0.37-2.24 0.6-2.18 0.65q0.01 0 0.08-0.03l0.02-0.01 0.01-0.01c-0.04 0.03 0.32-0.22 0.16-0.11l-0.03 0.03-0.13 0.11c-0.09 0.08 0.19-0.12 0.22-0.18q0.06-0.05 0.1-0.1c0.11-0.12 0.09-0.15 0.12-0.04 0.06 0.27 0.17 0.64 0.53 1.38 0.35 0.83 0.87 1.82 0.83 3.37-0.02 0.75-0.29 1.69-0.92 2.52-0.12 0.15-0.06 0.11-0.34 0.41l-0.11 0.12c-0.06 0.06-0.47 0.44-0.68 0.59q-0.65 0.48-1.32 0.8c-1.79 0.81-3.16 0.97-4.11 1.18-0.43 0.09-0.6 0.14-0.78 0.21-0.16 0.06-0.27 0.12-0.18 0.08 0.06-0.04 0.35-0.27 0.48-0.65 0.02-0.14 0.05-0.08 0.06-0.37 0 0.02-0.01 0.17 0 0.08 0.01-0.07-0.01-0.22-0.01-0.22q-0.04-0.19-0.03-0.14l0.55 0.95 0.12 0.22 0.13 0.31 0.14 0.35q0.22 0.69 0.27 1.17c0.14 1.4-0.22 2.7-0.82 3.81q-0.91 1.66-2.48 2.94c-0.94 0.78-2.03 1.42-3.04 1.95-1.02 0.53-2.01 0.97-2.92 1.37l-0.67 0.29c-0.3 0.12-0.27 0.12-0.06-0.02 0.16-0.13 0.92-0.64 0.97-1.75-0.05-0.88-0.41-1.11-0.23-0.88 0.82 1.34 1.73 2.61 2.71 3.87l0.76 0.94c0.13 0.27 0.81 0.6 1.31 2.1 0.1 0.37 0.13 0.84 0.01 1.29l-0.13 0.4v0.02l-0.02 0.03-0.04 0.07-0.07 0.14q-0.12 0.23-0.29 0.45c-0.96 1.16-1.85 1.33-2.46 1.54-1.26 0.3-1.75 0.25-2.11 0.3-0.34-0.01-0.08 0.11 0.63-0.53 0.06-0.07 0.13-0.18 0.15-0.22-0.04 0.05 0.08-0.12 0.08-0.14l0.04-0.1q0.05-0.18 0.02-0.15-0.01 0.02-0.06 0.24l-0.05 0.25-0.03 0.07-0.05 0.15-0.1 0.31-0.24 0.55c-0.18 0.39-0.38 0.62-0.58 0.91q-0.64 0.81-1.47 1.4c-2.21 1.56-4.64 2.07-6.89 2.45-2.33 0.35-4.32 0.43-6.51 0.5-4.27 0.12-8.53-0.1-12.67-0.75q6.24-0.75 12.14-1.95l2.91-0.66c0.99-0.22 1.94-0.44 2.77-0.7 1.69-0.51 3.21-1.29 3.92-2.01q0.25-0.27 0.35-0.5c0.02-0.07 0.09-0.18 0.05-0.17v-0.02l0.05-0.26 0.02-0.15 0.01-0.07 0.01-0.02c-0.02 0.06 0.03-0.18-0.03 0.14v-0.02l0.02-0.34q0.02-0.27 0.18-0.73l0.11-0.24 0.16-0.28c0.08-0.13 0.23-0.31 0.37-0.46 1.32-1.3 2.69-1.39 3.34-1.57 0.65-0.11 1.2-0.23 0.92-0.2-0.13 0.08-0.55 0.02-1.24 0.84q-0.12 0.16-0.19 0.33c-0.04 0.11 0 0 0 0l0.02-0.07 0.02-0.04v-0.02c0.03-0.09-0.22 0.66-0.12 0.37-0.07 0.26-0.05 0.52-0.01 0.7 0.28 0.72 0.22 0.44-0.23 0.07l-1.01-1.01c-1.32-1.35-2.52-2.81-3.58-4.28-0.04-0.12-0.67-0.71-0.7-1.99 0.06-1.51 1.15-2.37 1.7-2.75 0.6-0.41 1.08-0.6 1.23-0.68l0.66-0.32q1.3-0.61 2.32-1.18c0.67-0.39 1.2-0.75 1.65-1.14 0.35-0.3 0.67-0.68 0.84-1.03 0.19-0.34 0.21-0.64 0.19-0.81q-0.03-0.1 0.01 0c0.03 0.04-0.05-0.15-0.07-0.21l-0.03-0.07-0.01-0.02c0.03 0.06-0.06-0.15 0.05 0.12v-0.01l-0.02-0.05c-0.08-0.16-0.35-0.54-0.67-1.22-0.15-0.34-0.31-0.77-0.38-1.3-0.02-0.1-0.04-0.34-0.04-0.51l0.01-0.22c0.04-0.47 0.08-0.62 0.17-0.94 0.36-1.16 1.28-2.07 2.11-2.62 0.86-0.58 1.67-0.9 2.45-1.16 0.78-0.25 1.61-0.42 2.18-0.51 1.06-0.16 1.76-0.34 1.76-0.34q-0.01 0-0.1 0.08c-0.03 0.01-0.26 0.24-0.16 0.15l0.12-0.12-0.13 0.16c-0.1 0.15-0.1 0.3-0.08 0.27 0.06-0.04-0.02-0.59-0.27-1.26-0.29-0.75-0.72-1.93-0.64-3.25 0.03-0.67 0.21-1.49 0.76-2.33 0.13-0.2 0.31-0.41 0.48-0.61 0.2-0.21 0.62-0.58 0.72-0.64l0.14-0.09 0.04-0.03 0.2-0.14 0.05-0.02 0.18-0.11c0.24-0.13 0.49-0.27 0.71-0.36 1.87-0.74 3.12-0.74 3.69-0.87 0.29-0.03 0.21-0.07-0.15 0.26-0.03 0.05-0.25 0.27-0.31 0.47-0.06 0.16-0.02 0.08 0 0.03l0.07-0.14 0.01-0.01c-0.03 0.11 0.09-0.27-0.07 0.24l-0.01 0.03v0.06q0 0.05 0 0.05 0.01 0.01 0.02-0.11c0.02-0.17-0.02-0.5 0.1-1.08q0.05-0.21 0.16-0.46c0.03-0.11 0.31-0.59 0.3-0.54 0.18-0.28 0.55-0.64 0.85-0.85 1.34-0.81 1.92-0.83 1.63-0.72-0.52 0.51-0.17 0.48-0.16 0.37 0.03-0.21-0.33-0.71-0.98-1.31l-3.04-2.84 3.73-0.2c0.14-0.01 0.29 0.02 0.53-0.29 0.23-0.29 0.38-0.79 0.53-1.34l0.38-1.84q0.23-1.07 0.72-2.06c1.3-2.62 3.95-4.72 7.07-5.67z"/>
					<path id="&lt;Path&gt;" class="s0" d="m672.88 176.24q-1.99-4.08-3.98-8.16c6.44 1.39 11.82 6.84 13.13 13.3 1.36-1.81 2.95-3.46 4.7-4.9 1.64-1.34 3.69-2.55 5.76-2.11 2.06 0.44 3.44 3.41 1.82 4.76 2.32 0.17 4.67-0.07 6.91-0.71q-0.06 1.55-0.11 3.11c7.46-2.73 15.45-3.99 23.39-3.67q-5.06 3.13-10.12 6.26c6.61 2.42 14.11-0.17 20.95 1.47 7.43 1.79 12.74 8.14 17.49 14.12-0.89 1.16-2.47 1.73-3.9 1.41 1.9 0.92 2.18 4 0.48 5.25 2 0.46 4.1 0.97 5.59 2.38 1.49 1.41 2.03 4.03 0.58 5.48-0.77 0.78-1.91 1.05-2.99 1.22-10.65 1.63-21.04-3.55-30.57-8.58q0.11 1.23 0.23 2.47-5.17 0.53-10.34 1.05c-3.58 0.37-7.21 0.73-10.76 0.12-3.54-0.61-7.05-2.32-9.04-5.32 5.92 1.13 12.09 0.93 17.92-0.57-11.61 0.26-23.26-4.03-31.93-11.76q1.33 0.85 2.66 1.7c-1.19-1.59-2.43-3.35-2.33-5.34 0.1-1.98 2.37-3.85 4.05-2.8q-2.51-2.25-5.02-4.51"/>
				</g>
				<path id="&lt;Path&gt;" class="s0" d="m550.21 281.51c0 0-1.31 0.24-3.58 0.49-1.14 0.07-2.5 0.35-3.99 0.61q-2.23 0.35-4.98 0.99c-1.82 0.34-3.77 0.93-5.83 1.45-2.05 0.51-4.2 1.21-6.43 1.83-4.5 1.39-9.3 2.87-14.1 4.36-2.45 0.71-4.89 1.44-7.37 2.06-2.44 0.67-4.92 1.19-7.31 1.68-2.43 0.43-4.75 0.86-7.02 1.07-2.26 0.24-4.4 0.37-6.41 0.34-0.99 0-1.94 0.04-2.84 0q-1.37-0.13-2.58-0.25-2.42-0.18-4.13-0.61c-2.27-0.5-3.52-0.88-3.52-0.88 0 0 1.31-0.36 3.51-0.81 1.1-0.18 2.42-0.57 3.92-0.94q2.25-0.54 4.97-1.34c1.8-0.48 3.73-1.15 5.78-1.78 2.04-0.6 4.19-1.4 6.41-2.09 4.46-1.5 9.25-3.1 14.15-4.59 4.93-1.45 9.98-2.74 14.86-3.54 2.45-0.37 4.82-0.69 7.11-0.81 2.29-0.12 4.45-0.16 6.46 0.01 1 0.06 1.95 0.08 2.85 0.18q1.38 0.23 2.61 0.44 2.44 0.36 4.05 0.94c2.18 0.69 3.41 1.19 3.41 1.19z"/>
				<g id="&lt;Group&gt;">
					<path id="&lt;Path&gt;" class="s0" d="m479.11 165.33c0 0-0.2-0.51-0.54-1.4-0.34-0.87-0.8-2.22-1.2-3.84-0.87-3.23-1.44-7.77-1.17-12.4 0.27-4.63 1.41-9.28 2.76-12.65 0.63-1.69 1.3-3.07 1.8-4.01 0.5-0.95 0.79-1.5 0.79-1.5l7.75 5.7c0 0-0.33 0.35-0.9 0.96-0.57 0.61-1.36 1.51-2.22 2.69-1.77 2.33-3.74 5.83-5.06 9.72-1.31 3.88-1.93 8.08-1.93 11.27-0.04 1.61 0.04 2.91 0.14 3.88 0.1 0.95 0.15 1.49 0.15 1.49z"/>
					<path id="&lt;Path&gt;" class="s0" d="m514.2 163.2c-0.08-2.2 0.28-4.45 0.93-6.54 0.21-0.69 0.49-1.39 0.73-2.09l-2.25-0.9q0 0.01-0.17 0.58c-0.11 0.33-0.3 1.04-0.45 1.39-0.11 0.43-0.39 1.05-0.74 1.8-0.37 0.72-0.84 1.53-1.44 2.38-1.21 1.7-2.96 3.58-5.21 5.31-2.23 1.73-4.97 3.33-7.79 4.61-1.56 0.67-2.96 1.24-4.49 1.8q-2.27 0.81-4.49 1.52c-2.97 0.93-5.75 1.8-8.13 2.54-4.78 1.52-7.83 2.87-7.83 2.87 0 0 3.24-0.78 8.16-1.4 2.48-0.31 5.36-0.66 8.46-1.04q2.34-0.3 4.82-0.71c1.62-0.27 3.4-0.64 4.98-1.01 3.45-0.85 6.76-2.04 9.8-3.61 2.09-1.07 4-2.33 5.68-3.67-0.29-1.24-0.52-2.51-0.57-3.83z"/>
					<g id="&lt;Group&gt;">
						<path id="&lt;Path&gt;" class="s0" d="m419.55 312.41c-3.31-5.77-6.53-11.58-9.63-17.49q-2.33-4.41-4.41-9c-1.31-3.13-2.61-5.95-4.62-8.38-3.91-4.93-9.52-8.39-14.98-12.14-5.55-3.69-11.03-7.71-16.26-11.89q-3.93-3.15-7.75-6.42c-1.31-1.2-2.37-1.87-3.63-2.7-1.33-0.85-2.72-1.67-4.12-2.48-5.65-3.19-11.53-6.11-17.49-8.82-11.94-5.39-24.26-9.93-36.74-13.63l3-0.08-2.73 0.97-2.69 0.85q-2.7 0.82-5.53 1.43c-1.89 0.41-3.84 0.75-5.93 0.9-1.03 0.1-2.14 0.1-3.27 0.06l-1.79-0.16-1.95-0.4 5.04-1.34c-0.95 0.98-1.71 1.7-2.6 2.49q-1.3 1.16-2.67 2.23c-1.84 1.43-3.81 2.77-6.01 3.93-1.1 0.57-2.23 1.13-3.5 1.57q-1.84 0.71-3.98 1.07c-1.51 0.24-2.76 0.33-4.75 0.14-0.54-0.08-0.97-0.11-1.62-0.24q-1.18-0.27-2.33-0.6-1.96-0.67-3.71-1.57-1.74-0.9-3.3-2c-2.09-1.46-3.97-3.11-5.7-5.1-0.87-1.02-1.7-2.08-2.52-3.6-0.38-0.75-0.84-1.65-1.11-3.24-0.04-1.1-0.34-1.74 0.49-3.84 0.33-0.85 1.12-1.82 1-1.65l0.26-0.3 4-4.84 3.71 9.3c-1.22-0.16-1.96-0.31-2.9-0.55q-1.35-0.32-2.69-0.8c-1.78-0.65-3.61-1.52-5.41-2.89-1.77-1.35-3.53-3.36-4.51-5.86q-0.41-0.93-0.59-1.9l-0.19-0.96-0.05-0.24-0.02-0.12-0.01-0.07-0.04-0.55-0.01-0.27-0.03-1.1q0.06-1.05 0.2-2.1c0.09-0.77 0.23-1.15 0.36-1.69 0.13-0.5 0.25-1.04 0.43-1.48 0.32-0.93 0.67-1.83 1.06-2.64 0.77-1.67 1.65-3.16 2.57-4.57 0.92-1.42 1.9-2.73 2.92-4.01l1.56-1.88c0.55-0.63 1.04-1.18 1.73-1.9l-1.77 4.07 0.09-1.43 0.12-1.27q0.15-1.27 0.37-2.52c0.3-1.69 0.69-3.37 1.28-5.1 0.59-1.73 1.31-3.48 2.44-5.25 0.25-0.44 0.61-0.89 0.92-1.32q0.46-0.66 1.09-1.29c0.41-0.42 0.76-0.85 1.26-1.24l1.46-1.14-2.39 3.08c1.81-5.12 3.66-10.13 5.7-15.21 1.05-2.57 2.04-5.03 3.49-7.85l0.61-1.12c0.22-0.39 0.6-0.95 0.92-1.4l0.12-0.18 0.33-0.41 0.17-0.19 0.32-0.38c0.53-0.54 1.24-1.22 1.74-1.55 2.17-1.64 4.61-2.24 5.96-2.56 1.44-0.31 1.87-0.52 1.72-0.47l-0.07 0.04c-0.06 0.08 0.11-0.09 0.22-0.21l0.36-0.35 1.64-1.57c2.31-2.13 4.92-3.97 7.52-5.48 2.61-1.51 5.24-2.77 7.88-3.88l1.98-0.81 0.99-0.39 1.2-0.41c1.14-0.41 2.77-0.84 4.38-1.23 5.86-1.33 11.3-1.87 16.87-2.22q8.28-0.47 16.51-0.2c5.49 0.17 10.98 0.57 16.5 1.27 5.49 0.64 11.21 1.9 16.21 3.03 5.14 1.11 10.29 2.2 15.35 3.05 5.05 0.87 10.08 1.47 14.68 1.42 4.35 0.03 8.96-1.4 14.14-2.75l15.41-4.24c5.22-1.37 10.42-2.74 16.01-3.73q2.08-0.38 4.35-0.62c0.71-0.11 1.59-0.13 2.4-0.16 0.47-0.01 0.7-0.05 1.36-0.03l1 0.04c1.2 0.04 3.18 0.22 4.5 0.42 1.46 0.19 2.86 0.46 4.28 0.73 5.59 1.14 10.93 2.87 16.14 4.98 5.2 2.15 10.27 4.66 15.11 8.18l-6.39 0.51c0.88-0.83 1.56-1.38 2.35-2.01q1.14-0.91 2.32-1.73 2.36-1.66 4.88-3.04c1.7-0.92 3.43-1.77 5.24-2.47q1.33-0.57 2.74-0.99c0.93-0.3 1.85-0.63 2.82-0.82 1.9-0.5 3.85-0.8 5.83-1.01 0.98-0.14 1.99-0.08 2.98-0.12 0.99-0.04 1.99-0.03 2.98 0.1 0.99 0.1 1.99 0.18 2.97 0.32l2.91 0.67c1.95 0.4 3.74 1.28 5.6 1.92l1.59 6.55c0.23-0.29 0.11-0.16 0.13-0.18l-0.07 0.1-0.19 0.34q-0.21 0.38-0.43 0.85c-0.28 0.61-0.56 1.29-0.82 1.97q-0.77 2.1-1.42 4.35l-0.62 2.25-0.3 1.14-0.13 0.49-0.13 0.6c-0.18 0.8-0.36 1.6-0.47 2.27-0.14 0.69-0.25 1.45-0.36 2.21-0.44 3.03-0.56 6.18-1.03 9.7-0.25 1.77-0.64 3.64-1.37 5.51-0.72 1.87-1.83 3.66-3.16 5.15l0.26-3.97c2.14 3.44 4.09 6.87 6.03 10.35q2.9 5.2 5.65 10.48c3.65 7.03 7.14 14.15 10.35 21.4 1.63 3.6 3.15 7.26 4.67 10.92 1.46 3.68 2.95 7.34 4.29 11.07q2.03 5.57 3.8 11.23c1.27 3.74 2.24 7.58 3.36 11.35-1.45-3.67-2.74-7.39-4.32-11-1.49-3.64-3.09-7.24-4.74-10.81-1.59-3.59-3.32-7.12-5.03-10.65-1.77-3.51-3.53-7.02-5.39-10.47-3.7-6.92-7.5-13.79-11.54-20.5-4.01-6.71-8.26-13.37-12.61-19.74l-1.35-1.98 1.61-1.98c1.57-1.95 2.24-4.23 2.51-7.19 0.26-2.94 0.25-6.3 0.58-9.72 0.08-0.86 0.16-1.71 0.3-2.62 0.12-0.94 0.26-1.74 0.4-2.52l0.25-1.3 0.26-1.23 0.56-2.47q0.58-2.48 1.38-5c0.28-0.84 0.57-1.69 0.93-2.57q0.26-0.65 0.6-1.36l0.38-0.74 0.25-0.42c0.13-0.19 0.12-0.22 0.48-0.68l1.59 6.55c-1.47-0.38-2.85-1.05-4.34-1.25l-2.2-0.41-2.22-0.15c-0.74-0.09-1.49-0.06-2.23 0-0.74 0.07-1.49 0.02-2.23 0.17-1.48 0.21-2.96 0.47-4.42 0.92-0.73 0.16-1.45 0.46-2.17 0.71q-1.08 0.36-2.13 0.86c-1.42 0.6-2.79 1.34-4.14 2.12q-2.01 1.2-3.88 2.61-0.94 0.7-1.82 1.45c-0.56 0.47-1.2 1.06-1.57 1.43l-2.87 2.9-3.53-2.39c-3.86-2.62-8.43-4.74-13.12-6.49-4.7-1.73-9.59-3.07-14.42-3.99-1.21-0.19-2.41-0.41-3.6-0.53-1.31-0.15-1.99-0.22-3.44-0.26l-0.99-0.02-0.63 0.05c-0.52 0.04-0.98 0.03-1.58 0.14q-1.69 0.21-3.53 0.58c-4.86 0.96-9.93 2.39-14.96 3.83l-15.26 4.53c-5.05 1.4-10.69 3.36-17.03 3.52-6.04 0.19-11.62-0.57-17.04-1.43-5.44-0.88-10.71-1.96-15.96-3.06-5.38-1.17-10.06-2.17-15.14-2.74-5.04-0.61-10.17-0.94-15.3-1.07-5.14-0.14-10.29-0.03-15.37 0.29-5.04 0.36-10.22 0.86-14.73 1.86-0.98 0.24-1.94 0.42-3.31 0.91l-0.47 0.15-0.24 0.08-0.12 0.04-0.06 0.02c-0.07 0.02 0.45-0.16 0.2-0.07l-0.86 0.33-1.72 0.69c-2.27 0.94-4.44 1.97-6.44 3.11-2.01 1.15-3.77 2.38-5.39 3.85l-1.24 1.17-0.85 0.83q-0.76 0.71-1.64 1.27c-2.37 1.54-4.61 1.9-5.74 2.18-1.23 0.28-1.42 0.43-1.38 0.4-0.06 0.03 0.21-0.14 0.22-0.26l-0.33 0.38-0.16 0.19-0.04 0.04c0.45-0.55 0.12-0.14 0.22-0.26l-0.01 0.03c-0.05 0.1-0.06 0.08-0.17 0.27l-0.35 0.63c-1 1.9-2.05 4.36-3.02 6.7-1.95 4.77-3.82 9.73-5.59 14.62l-0.26 0.73-2.13 2.35q-0.11 0.12-0.25 0.21c-0.1 0.03-0.19 0.2-0.29 0.29q-0.16 0.12-0.32 0.37c-0.1 0.16-0.23 0.25-0.33 0.46-0.46 0.66-0.86 1.63-1.23 2.63-0.38 1.01-0.67 2.16-0.91 3.33q-0.17 0.88-0.29 1.78l-0.11 0.89-0.07 0.75-0.21 2.42-1.55 1.65-1.26 1.32-1.27 1.47c-0.82 1-1.63 2.02-2.31 3.05-0.7 1.02-1.33 2.06-1.8 3.03-0.27 0.5-0.44 0.97-0.62 1.42-0.11 0.23-0.13 0.42-0.19 0.62-0.05 0.18-0.16 0.49-0.13 0.45q0 0.04-0.09 0.08l0.01 1.09v0.28 0.01c0.03 0.45-0.04-0.61-0.03-0.5v0.01l0.01 0.01 0.01 0.03q0.02 0.05 0.02 0.11-0.01 0.12 0.05 0.2c0.01 0.13 0.1 0.25 0.22 0.42q0.17 0.25 0.56 0.58c0.52 0.43 1.33 0.89 2.29 1.25q0.72 0.28 1.51 0.49c0.47 0.14 1.17 0.27 1.4 0.31l10.14 1.85-6.43 7.45-4.1 4.75c-0.09-0.01-0.72 1.07 0.37-0.68 0.54-1.63 0.39-1.72 0.35-2.31-0.08-0.56-0.15-0.48-0.04-0.31 0.16 0.33 0.58 0.97 1.07 1.54 0.98 1.19 2.24 2.36 3.56 3.32q1 0.72 2.03 1.29c0.69 0.38 1.37 0.67 2.05 0.93q0.36 0.09 0.69 0.23c0.37 0.09 0.99 0.18 1.47 0.27 0.1-0.02 0.95 0.06 1.51-0.05 0.64-0.08 1.34-0.22 2.08-0.49 0.73-0.2 1.5-0.55 2.26-0.92 1.53-0.74 3.08-1.69 4.58-2.78q1.12-0.82 2.2-1.72c0.71-0.58 1.47-1.27 2-1.78l1.98-1.89 3.06 0.55q0.34 0.06 0.66 0.16l0.87 0.11c0.64 0.03 1.31 0.07 2.05 0.02 1.46-0.05 3.04-0.26 4.64-0.55q2.4-0.43 4.83-1.08l2.42-0.68 2.34-0.74 1.65-0.53 1.34 0.44c12.89 4.22 25.34 9.48 37.34 15.61 6 3.07 11.89 6.34 17.65 9.95 1.43 0.93 2.87 1.86 4.29 2.87 1.48 1.04 3.11 2.33 4.18 3.46q3.56 3.43 7.22 6.73c4.9 4.41 9.91 8.57 15.2 12.56 2.64 2.02 5.33 4.04 7.9 6.28 2.57 2.25 5.06 4.73 7.03 7.65 2.04 2.87 3.31 6.27 4.34 9.34 1.13 3.08 2.41 6.14 3.67 9.2 2.56 6.12 5.27 12.19 8.07 18.22z"/>
						<path id="&lt;Path&gt;" class="s0" d="m247.04 203.38c0 0 11.22 2.94 26.73-0.54 15.5-3.47 31.8-10.69 34.74-12.56 2.94-1.87 5.34-9.62 10.15-9.08 4.81 0.53 8.55 5.87 4.81 8.55-3.74 2.67-9.08 3.2-13.89 5.34-4.81 2.14-58.8 17.37-58.53 23.52"/>
						<path id="&lt;Path&gt;" class="s0" d="m261.86 165.28c2.48-2.99 6.51-4.16 10.35-4.8 3.83-0.64 7.83-0.94 11.26-2.77 3.04-1.61 5.52-4.37 8.87-5.16 2.04-0.48 4.58 0.1 5.42 2.01 0.55 1.27 0.21 2.75-0.43 3.98-2.12 4.13-7.06 6.08-11.69 6.34-4.64 0.26-9.24-0.8-13.88-1.03-4.64-0.22-9.67 0.58-12.97 3.85"/>
						<path id="&lt;Path&gt;" class="s0" d="m286.03 150.79c2.46-1.1 4.95-2.2 7.61-2.61 2.66-0.4 5.55-0.04 7.7 1.57 2.57 1.91 3.7 5.38 3.25 8.55-0.46 3.16-2.33 6.01-4.73 8.12 3.11-2.04 5.75-4.99 6.78-8.56 1.04-3.57 0.25-7.77-2.47-10.31-2.46-2.3-6.18-2.96-9.46-2.18-3.28 0.77-6.15 2.83-8.42 5.33"/>
						<path id="&lt;Path&gt;" class="s0" d="m247.98 174.11c0 0 7.75-5.34 19.37-4.67 11.63 0.66 18.04 3.6 27.66 0.4 0 0-4.54 4.14-14.03 3.87-9.49-0.26-19.78-4.81-29.8 7.22"/>
						<path id="&lt;Path&gt;" class="s0" d="m244.64 192.42c0 0 10.28-8.15 28.06-9.89 0 0-11.63-1.6-21.92 0.67"/>
						<path id="&lt;Path&gt;" class="s0" d="m427.46 161.47c-3.49 0.99-6.67 3.18-10.29 3.34-4.95 0.22-9.07-3.17-13.61-4.57-2.73-0.83-5.63-0.54-8.16 0.77-2.34 1.22-5.18 3.65-6.08 6.2-0.21 0.62-0.34 1.3-0.13 1.93 0.21 0.62 0.82 1.14 1.47 1.07 1.12-0.13 1.46-1.69 2.46-2.2 0.63-0.33 1.41-0.18 2.01 0.2 0.6 0.37 1.05 0.93 1.5 1.47 2.76 3.34 6.01 6.53 10.14 7.87 3.96 1.29 8.37 0.72 12.18-0.96 3.8-1.69 7.07-4.42 9.93-7.45 1.71-1.81 3.35-3.78 5.52-5.01 2.18-1.23 5.09-1.55 7.07-0.02-3.92-2.99-9.27-4-14.01-2.64z"/>
						<path id="&lt;Path&gt;" class="s0" d="m383.6 155.25c0 0 2.28-1.74 6.02-3.82 3.72-2.08 9.13-4.48 15.08-5.04 2.94-0.24 5.99-0.07 8.68 0.67 2.76 0.73 5.1 1.97 6.86 3.34 1.78 1.34 2.94 2.81 3.63 3.87 0.68 1.08 0.94 1.75 0.94 1.75 0 0-0.5-0.53-1.42-1.33-0.94-0.79-2.33-1.83-4.14-2.74-1.8-0.91-4.04-1.71-6.45-2.12-2.48-0.42-5.13-0.52-7.81-0.24-5.35 0.46-10.63 2.2-14.63 3.52-3.99 1.35-6.76 2.14-6.76 2.14z"/>
						<path id="&lt;Path&gt;" class="s0" d="m396.95 184.25c0 0 0.5 0.22 1.39 0.61 0.86 0.38 2.13 0.84 3.64 1.24 1.53 0.38 3.3 0.68 5.22 0.79 1.89 0.08 3.98 0.01 5.91-0.34 1.12-0.17 2.01-0.37 3.01-0.63 0.96-0.3 1.93-0.54 2.85-0.89 1.83-0.65 3.51-1.4 4.96-2.08 2.87-1.41 4.83-2.5 4.83-2.5 0 0-1.23 1.89-3.83 4.04-1.3 1.08-2.94 2.21-4.86 3.15-0.97 0.45-1.99 0.91-3.07 1.24-1.05 0.33-2.28 0.64-3.3 0.83-2.37 0.35-4.67 0.36-6.82-0.02-2.14-0.36-4.07-1.07-5.57-1.89-1.53-0.81-2.62-1.71-3.33-2.41-0.7-0.69-1.03-1.14-1.03-1.14z"/>
						<path id="&lt;Path&gt;" class="s0" d="m469.59 243.7c-0.51 0.7-1.36 1.64-2.46 2.82-2.26 2.28-5.81 5.28-10.73 7.69-4.87 2.45-11.06 4.35-17.75 4.96-6.78 0.64-14 0.03-21.09-1.41-14.19-2.91-27.71-8.74-38.34-12.41-5.29-1.88-9.83-3.29-13.05-4.18-3.34-0.91-5.07-1.31-5.07-1.31l-0.39 1.91c0.97 1.1 1.79 2.28 2.57 3.48 2.05 0.12 4.06 0.9 5.45 2.4q1.72 1.86 2.81 4.12 2.45 0.59 5.29 1.34c10.6 2.69 24.88 7.56 39.98 9.41 7.51 0.9 15.22 0.91 22.21-0.32 7.07-1.24 13.28-3.74 18.11-6.67 4.86-2.9 8.22-6.25 10.31-8.74 1.01-1.27 1.78-2.29 2.24-3.03q0.73-1.1 0.73-1.11-0.01 0.01-0.82 1.05z"/>
						<path id="&lt;Path&gt;" class="s0" d="m494.9 199.35q0 0.01 0.24 1.04c0.15 0.67 0.45 1.65 0.63 2.94 0.24 1.28 0.47 2.86 0.62 4.67 0.15 1.81 0.25 3.88 0.19 6.13-0.09 4.5-0.76 9.79-2.29 15.27-1.49 5.5-3.97 11.12-7.11 16.36-1.59 2.5-3.45 5.07-5.32 7.38-1.89 2.33-4 4.4-6.07 6.34-4.21 3.85-8.63 6.82-12.61 8.93-1.98 1.07-3.87 1.91-5.56 2.59-1.69 0.68-3.19 1.19-4.44 1.55-1.23 0.42-2.25 0.59-2.92 0.77q-1.02 0.24-1.03 0.24c0 0 1.24-0.79 3.42-2.16 2.16-1.37 5.15-3.43 8.52-6.07 1.66-1.36 3.44-2.84 5.24-4.48 1.81-1.62 3.57-3.49 5.4-5.38 1.81-1.91 3.48-4.06 5.21-6.2 1.69-2.2 3.2-4.41 4.7-6.87q2.22-3.56 4.02-7.29c1.13-2.51 2.3-4.96 3.19-7.45 0.86-2.48 1.74-4.89 2.37-7.24 0.65-2.35 1.17-4.6 1.64-6.69 0.83-4.2 1.32-7.81 1.57-10.34 0.24-2.57 0.39-4.04 0.39-4.04z"/>
						<path id="&lt;Path&gt;" class="s0" d="m418.79 272.5c-3.07 0.04-7.11-0.31-10.98-1.15-3.88-0.85-7.54-2.19-10.13-3.43-1.36-0.62-2.17-1.1-3.03-1.56-0.79-0.44-1.24-0.69-1.24-0.69l-0.74 1.96q0.06 0.01 0.13 0.03c1.79 0.49 4.28 2.07 5.05 3.88q0.48 1.1 1.04 2.15c0.78 0.39 1.52 0.87 2.21 1.58 0.3 0.31 0.51 0.64 0.75 0.97 1.84 0.05 3.74 0.05 5.65-0.09 4.33-0.33 8.51-1.22 11.52-2.17 3.01-0.92 4.9-1.76 4.9-1.76 0 0-2.07 0.26-5.13 0.28z"/>
					</g>
				</g>
				<path id="&lt;Compound Path&gt;" class="s0" d="m229.81 242.8c-9.44 12.73-17.91 25.83-25.46 39.05-5.04 8.56-9.3 17.38-13.61 26-3.87 8.83-7.87 17.43-11.03 26.22-3.52 8.64-6.09 17.45-8.94 25.98-2.3 8.69-4.92 17.13-6.59 25.61-3.97 16.82-6.11 33.28-7.68 48.91-1.14 15.68-1.51 30.61-1.09 44.57 0.91 28.01 4.8 52.15 9.29 71.66 4.48 19.54 9.62 34.43 13.32 44.47 1.89 5.01 3.38 8.83 4.46 11.37 1.04 2.56 1.58 3.88 1.58 3.88 0 0-0.48-1.34-1.42-3.94-0.96-2.59-2.29-6.47-3.96-11.54-3.32-10.16-7.62-25.25-11.53-44.76-3.85-19.5-6.94-43.58-6.97-71.2 0.03-13.85 0.87-28.51 2.47-43.9 2.02-15.33 4.3-31.45 8.56-47.87 1.8-8.29 4.53-16.51 6.94-24.97 2.96-8.3 5.63-16.87 9.25-25.26 3.25-8.53 7.32-16.87 11.27-25.41 4.37-8.33 8.68-16.86 13.76-25.11 7.44-12.44 15.69-24.75 24.84-36.68-3.17-2.34-5.63-4.8-7.46-7.08zm679.47 214.73c0.04-3.68-0.19-7.46-0.44-11.29q-0.35-5.76-0.71-11.66c-1.55-15.65-3.71-32.09-7.67-48.91-1.67-8.49-4.29-16.92-6.6-25.62-2.84-8.52-5.41-17.34-8.94-25.98-3.16-8.78-7.15-17.39-11.03-26.21-4.31-8.62-8.56-17.44-13.6-26-9.85-17.22-21.21-34.25-34.3-50.51-13.12-16.24-27.99-31.65-44.28-45.99-32.57-28.64-71.23-52.89-113.99-69.02-42.72-16.32-88.83-24.93-135.56-25.09l-17.1 0.45c-5.73 0.22-11.63 0.83-17.43 1.24l-4.37 0.34-4.31 0.56-8.61 1.11c-4.91 0.52-9.76 1.44-14.62 2.32 15.67 2.36 27.06 5.57 34.59 8.22 5.01-0.36 9.96-0.83 15.07-1.01l17.11-0.42c44.55 0.03 89.59 8.19 130.83 23.84 20.63 7.84 40.49 17.31 59.07 28.45 18.59 11.13 35.97 23.76 51.93 37.51 15.98 13.74 30.45 28.65 43.57 44.14 13.04 15.56 24.42 31.93 34.35 48.55 5.08 8.25 9.39 16.78 13.76 25.11 3.95 8.55 8.02 16.89 11.27 25.42 3.62 8.38 6.29 16.95 9.24 25.25 2.42 8.47 5.15 16.69 6.94 24.98 4.26 16.41 6.54 32.54 8.57 47.86q0.53 5.76 1.04 11.37c0.37 3.73 0.72 7.42 0.8 11.13 0.27 7.43 0.72 14.49 0.62 21.39-0.03 27.65-3.12 51.72-6.97 71.22-3.91 19.51-8.21 34.61-11.54 44.76-1.67 5.07-2.99 8.95-3.96 11.54-0.94 2.6-1.42 3.94-1.42 3.94 0 0 0.54-1.32 1.58-3.88 1.08-2.54 2.57-6.36 4.46-11.37 3.7-10.04 8.84-24.94 13.31-44.47 4.49-19.51 8.38-43.67 9.29-71.65 0.31-7 0.09-14.28 0.05-21.62z"/>
				<g id="&lt;Group&gt;">
					<path id="&lt;Path&gt;" class="s0" d="m587.09 563.8c0 0-1.37-2.18-3.43-5.46-0.55-0.76-1.05-1.62-1.67-2.46q-0.87-1.3-1.89-2.6c-0.62-0.92-1.42-1.71-2.1-2.61-0.78-0.79-1.51-1.67-2.34-2.4-0.84-0.72-1.62-1.52-2.53-2.09q-0.66-0.47-1.3-0.97-0.7-0.36-1.37-0.76c-0.88-0.6-1.83-0.96-2.74-1.35-0.89-0.46-1.79-0.77-2.66-1.01-0.86-0.21-1.66-0.61-2.4-0.74-0.75-0.13-1.41-0.31-1.97-0.44-1.11-0.28-1.78-0.49-1.78-0.49 0 0 0.59-0.29 1.7-0.71 0.55-0.2 1.24-0.46 2.05-0.68 0.8-0.26 1.74-0.3 2.78-0.4q0.79-0.06 1.64-0.13c0.56 0 1.14 0.11 1.75 0.17 1.21 0.15 2.51 0.32 3.77 0.84q0.95 0.35 1.94 0.72 0.92 0.48 1.84 1.04c1.28 0.66 2.33 1.66 3.43 2.58 2.07 1.98 3.75 4.3 4.87 6.63 0.6 1.15 1.04 2.31 1.4 3.42 0.41 1.1 0.58 2.21 0.81 3.18 0.76 4 0.2 6.72 0.2 6.72z"/>
					<path id="&lt;Path&gt;" class="s0" d="m543.61 556.09q0.01 0 0.58-0.15c0.3-0.03 1.18-0.39 1.93 0.63 0.48 1.04 0.25 2.04 0.21 2.99-0.12 0.96 0.1 1.94 0.39 1.87q0.07 0.01 0.27 0.05c-0.02-0.02 0.16 0.07-0.03-0.04l0.23 0.07 0.47 0.14c0.34-0.02 0.72 0.07 1.25 0 0.97-0.07 2.15-0.46 3.47-0.87 2.62-0.91 5.66-2.14 8.81-3.04 0.47-0.12 0.61-0.19 1.36-0.36l1.18-0.23c0.84-0.15 2-0.24 2.87-0.25 1.78-0.03 3.46 0.19 5.03 0.46 1.59 0.23 3.06 0.66 4.43 1.08 1.38 0.39 2.64 0.88 3.79 1.37 4.59 1.9 7.24 3.99 7.24 3.99 0 0-3.35-0.17-8.09-0.61-2.37-0.19-5.1-0.43-7.92-0.51-1.41-0.09-2.83 0.03-4.21 0.1-0.71 0.07-1.13 0.14-1.86 0.24l-1.17 0.27c-0.03-0.01-0.65 0.19-0.95 0.28-3.01 0.86-6.02 1.79-9.22 2.38-1.58 0.32-3.29 0.47-5.07 0.2-0.86-0.11-1.79-0.39-2.66-0.84l-0.4-0.27-0.2-0.14c-0.32-0.18-0.27-0.19-0.42-0.3-0.4-0.31-0.77-0.69-1.05-1.2-0.55-0.96-0.61-2.05-0.41-2.73 0.16-0.73 0.42-1.26 0.64-1.72 0.45-0.91 0.86-1.61 0.9-1.94 0.07-0.28-0.44-0.67-0.82-0.74q-0.56-0.18-0.57-0.18z"/>
					<path id="&lt;Path&gt;" class="s0" d="m572.43 541.05c2.87-0.66 5.41-2.41 7.02-4.71 1.62-2.31 2.34-5.09 2.45-7.88 0.12-2.81-0.34-5.62-0.99-8.39-0.31-1.3-0.78-2.8-1.16-4.19-0.48-1.36-0.88-2.69-1.42-4.02-2.07-5.34-4.81-10.28-8.29-14.76-1.73-2.28-3.64-4.4-5.56-6.89-0.48-0.61-0.94-1.29-1.41-1.98-0.41-0.63-0.96-1.64-1.22-2.08-0.16-0.28-0.21-0.31-0.29-0.42 0.03 0.05-0.06-0.03 0.18 0.18 0.07 0.05 0.19 0.14 0.5 0.28 0.2 0.08 0.67 0.22 1.14 0.17 0.99-0.06 1.62-0.69 1.73-0.83 0.2-0.25 0.18-0.26 0.2-0.26l-0.11 0.47c-0.19 1.01-0.26 2.41-0.25 3.71 0.01 0.66 0.04 1.33 0.1 1.88l0.04 0.3c0.07 0.14-0.17-0.59 0.01-0.06 0.28 0.86 0.35 1.32 0.4 2.1 0.01 0.38 0.01 0.8-0.1 1.37-0.14 0.54-0.31 1.43-1.4 2.41-1.16 1.02-2.78 1.05-3.47 0.86-0.81-0.18-1.16-0.4-1.55-0.6-1.3-0.78-1.85-1.41-2.5-2.04-1.2-1.23-2.23-2.53-3.12-3.68-3.7-4.77-7-9.51-10.72-13.64-1.79-1.99-3.89-3.97-5.46-4.73-0.37-0.19-0.63-0.2-0.63-0.2-0.02 0.03 0.35-0.03 0.5-0.11-0.33 0.26-0.14 0.15-0.26 0.3-0.06 0.1-0.13 0.28-0.19 0.59-0.13 0.64-0.11 1.72 0.03 3.14 0.04 0.79 0.2 1.44 0.04 3.11-0.07 0.43-0.14 0.99-0.52 1.81-0.31 0.74-1.25 1.97-2.49 2.5-0.6 0.28-1.08 0.36-1.65 0.45-0.43 0.04-0.77 0.02-1.17-0.01-0.56-0.06-1.12-0.2-1.43-0.31-0.77-0.25-1.23-0.49-1.69-0.73l-0.34-0.17-0.36-0.21-0.5-0.3c-0.93-0.59-1.55-1.06-2.22-1.57-1.29-0.99-2.44-1.97-3.57-2.92-4.38-3.74-8.86-7.31-12.92-8.13-2.04-0.37-3.44-0.14-5.38 0.96-0.23 0.13-0.55 0.39-0.64 0.47-0.07 0.09 0.08-0.08 0.12-0.36-0.01-0.66-0.09-0.06 0.6 0.94l1.24 1.97c0.26 0.45 0.6 0.97 0.94 2.13 0.13 0.53 0.33 1.44 0.08 2.61q-0.18 0.92-0.7 1.72c-0.36 0.56-0.77 0.99-1.1 1.25-0.85 0.68-1.29 0.8-1.89 1.05-0.4 0.13-0.85 0.24-1.19 0.3-0.67 0.11-1.22 0.15-1.71 0.17-0.76 0.02-0.74 0.02-1.38 0q-0.84-0.03-1.54-0.12c-1.92-0.23-3.82-0.79-5.43-1.49l-2.15-0.98-0.68-0.3c-0.13-0.06-0.15-0.01 0.36 0.02 0.46 0.07 1.65-0.33 2.05-0.8 0.44-0.44 0.42-0.51 0.42-0.51-0.04 0.04-0.25 0.76-0.31 1.05l-0.09 0.55-0.03 0.23c-0.01 0.14-0.03 0.4-0.02 0.59q0 0.63 0.15 1.33c0.21 1.04 0.58 1.78 1.27 3.91 0.12 0.61 0.52 1.36 0.16 3.3-0.18 0.92-0.87 2.06-1.64 2.7q-0.53 0.43-1.06 0.71-0.42 0.21-0.86 0.37c-1.86 0.52-2.71 0.38-3.66 0.39-1.81-0.1-2.69-0.17-4.02-0.09-1.22 0.06-2.44 0.24-3.53 0.52-1.09 0.28-2.08 0.7-2.69 1.13-0.63 0.47-0.74 0.7-0.81 0.96-0.09 0.27 0 1.02 0.45 1.93 0.09 0.22 0.24 0.46 0.36 0.69l0.59 1.03c0.5 1.01 0.94 1.96 1.19 3.15 0.25 1.17 0.3 2.62-0.11 4.03-0.4 1.41-1.21 2.58-2 3.39-0.79 0.83-1.57 1.4-2.21 1.86-0.6 0.41-1.23 0.9-1.14 0.82 0-0.02 0.1-0.13 0.2-0.37 0.1-0.2 0.21-0.62 0.2-0.99-0.03-0.84-0.38-1.17-0.35-1.16-0.06-0.04 0.06 0.1 0.21 0.23-0.24-0.14 0.6 0.47 0.52 0.38 0.36 0.27 1.49 0.64 2.62 0.72 2.37 0.23 5.25-0.09 8.13-0.4 5.81-0.65 12-1.29 18.21-0.62h-0.19c2.3 0.11 4.4 0.34 6.56 0.64q3.22 0.46 6.38 1.16c4.22 0.92 8.38 2.12 12.41 3.65 4.02 1.54 7.9 3.43 11.54 5.69 3.65 2.26 6.98 5 9.91 8.04-6.62-5.31-14.39-8.74-22.38-10.93-3.99-1.12-8.07-1.91-12.17-2.43q-3.08-0.39-6.17-0.59c-2.03-0.14-4.15-0.21-6.08-0.17h-0.01l-0.18-0.01c-5.57-0.21-11.14 0.78-16.96 1.8-2.95 0.46-5.94 1.02-9.46 0.9-1.79-0.11-3.65-0.3-5.84-1.53-0.72-0.43-0.49-0.25-1.3-0.87-0.41-0.33-0.85-0.68-1.35-1.31-0.44-0.54-1.15-1.58-1.19-3.15-0.02-1.6 0.76-2.76 1.25-3.34 1.06-1.2 1.69-1.53 2.25-2.01q0.8-0.63 1.12-1.02c0.37-0.6 0.16-0.18 0.11-0.72-0.06-0.26-0.26-0.65-0.41-0.96l-0.53-0.88c-0.24-0.4-0.49-0.79-0.71-1.24-0.86-1.69-1.67-3.9-1.32-6.57 0.32-2.69 2.1-5.02 3.83-6.27 1.77-1.33 3.56-2.04 5.29-2.56 1.74-0.51 3.45-0.8 5.15-0.95 1.62-0.17 3.68-0.1 4.82-0.06 0.52 0.03 1.16-0.11 0.71-0.01q-0.18 0.05-0.35 0.15-0.3 0.14-0.6 0.4c-0.51 0.38-0.96 1.22-1.09 1.78-0.2 1.21 0.02 1.21-0.07 1.12-0.22-0.66-1.13-2.6-1.52-4.46q-0.33-1.46-0.38-3.05c-0.01-0.54 0.01-1.01 0.06-1.61l0.1-0.86 0.09-0.55c0.24-1.15 0.39-1.86 0.93-3.17 0.32-0.65 0.64-1.4 1.63-2.35 0.93-0.98 2.87-1.65 4.07-1.54 1.25 0.04 1.94 0.31 2.5 0.49 0.56 0.21 0.99 0.4 1.35 0.57l1.88 0.83c1.1 0.46 2.06 0.71 3.06 0.83q0.4 0.04 0.67 0.04c0.09 0.02 0.85 0.01 0.83 0q0.37-0.02 0.48-0.04c0.02-0.01-0.07 0-0.12 0.03-0.27 0.1-0.35 0.11-0.93 0.54-0.17 0.15-0.47 0.43-0.73 0.84q-0.35 0.57-0.49 1.21c-0.17 0.82-0.02 1.34 0.01 1.53 0.14 0.45 0.13 0.31 0 0.14l-1.14-1.76c-0.47-0.75-1-1.64-1.43-2.82-0.43-1.16-0.76-2.77-0.44-4.5 0.3-1.73 1.22-3.21 2.14-4.21 0.95-0.97 1.8-1.61 2.85-2.22 0.6-0.37 0.73-0.39 1.12-0.6 0.59-0.31 0.97-0.43 1.48-0.64q1.44-0.54 2.99-0.8c2.06-0.35 4.15-0.23 6.04 0.18 3.81 0.83 6.87 2.6 9.56 4.42 2.69 1.86 5.04 3.89 7.28 5.81 2.18 1.89 4.53 3.88 5.64 4.3 0.03 0.03-0.16-0.05-0.37-0.06-0.21-0.02-0.37-0.02-0.62 0.01-0.39 0.03-0.67 0.12-1.11 0.31-0.92 0.36-1.59 1.31-1.76 1.71-0.22 0.49-0.21 0.68-0.23 0.75 0 0.2-0.01-0.62-0.06-1.3-0.08-1.5-0.23-3.41 0.28-5.66 0.26-1.12 0.73-2.34 1.5-3.45 0.7-1.08 1.98-2.22 2.9-2.74 1.38-0.9 3.29-1.22 4.72-1.03 1.46 0.17 2.63 0.63 3.56 1.12 3.64 2.06 5.64 4.48 7.75 6.85 4.03 4.76 7.33 9.81 10.58 14.54 0.86 1.22 1.61 2.26 2.42 3.19 0.36 0.43 0.86 0.87 0.82 0.85-0.07-0.02-0.09-0.07-0.53-0.17-0.35-0.11-1.56-0.12-2.43 0.66-0.81 0.74-0.84 1.27-0.9 1.45-0.04 0.21-0.02 0.27-0.02 0.27 0.03 0.05-0.03-0.23 0.03-0.07 0.05 0.19-0.29-0.9-0.28-1.12q-0.05-0.45-0.07-0.8c-0.05-0.92-0.04-1.72-0.01-2.54 0.09-1.64 0.21-3.19 0.65-5.05 0.13-0.49 0.25-0.97 0.56-1.63 0.17-0.34 0.31-0.69 0.76-1.22 0.33-0.43 1.29-1.28 2.64-1.38 0.66-0.04 1.31 0.1 1.68 0.27 0.49 0.2 0.76 0.4 0.97 0.56 0.54 0.42 0.67 0.65 0.95 0.97 0.36 0.48 0.7 1.08 0.88 1.45 0.42 0.87 0.55 1.16 0.89 1.79 0.32 0.56 0.64 1.12 1.04 1.7 1.51 2.3 3.38 4.7 5.04 7.25 3.42 5.07 6.05 10.75 7.68 16.59 0.44 1.45 0.76 2.98 1.12 4.44 0.27 1.48 0.57 2.83 0.8 4.42 0.46 3.01 0.57 6.12 0.12 9.18-0.47 3.04-1.58 6.12-3.71 8.4-2.09 2.29-4.98 3.7-7.92 3.98z"/>
					<path id="&lt;Path&gt;" class="s0" d="m410.12 655.73c2.5-7.66 5.23-15.22 8.03-22.74l2.48 2.76-3.7 1.52c-1.14 0.47-2.43-0.08-2.9-1.21-0.2-0.49-0.21-1-0.07-1.47l0.07-0.26c2.2-7.39 4.94-14.62 8.29-21.54q2.47-5.22 5.23-10.29l2.9-4.99c1-1.67 1.99-3.27 3.1-4.97l3.53 6.48-6.82 0.41c-2.34 0.15-4.36-1.64-4.5-3.98-0.08-1.41 0.52-2.7 1.53-3.53l0.18-0.15c4.13-3.39 8.36-6.66 12.53-10l4.44 7.64-8.56 3.61-0.1 0.04c-2.28 0.96-4.9-0.11-5.86-2.39-0.5-1.19-0.45-2.49 0.04-3.58 1.16-2.56 2.24-5.18 3.6-7.64q1.92-3.76 4.15-7.32c1.39-2.44 3.05-4.69 4.59-7.02 1.65-2.25 3.32-4.49 5.13-6.6 1.75-2.17 3.63-4.22 5.5-6.27q2.84-3.04 5.84-5.92 3.05-2.83 6.25-5.49c2.16-1.78 4.29-3.45 6.68-5.13l2.36 5.72-5.09 0.52-0.36 0.03c-1.57 0.16-2.96-0.99-3.12-2.55-0.09-0.84 0.21-1.64 0.73-2.22 2.33-2.54 4.71-5 7.31-7.19 2.56-2.23 5.29-4.23 8.08-6.1 5.57-3.75 11.54-6.85 17.76-9.15-2.82 1.74-5.47 3.71-8.09 5.66-2.61 1.99-5.11 4.09-7.54 6.24-2.44 2.14-4.69 4.46-6.88 6.8-2.22 2.32-4.16 4.85-6.02 7.39l-2.75-4.73 5.02-1.01c1.71-0.34 3.36 0.77 3.71 2.47 0.23 1.17-0.22 2.32-1.08 3.04l-0.27 0.22c-1.9 1.59-3.9 3.41-5.77 5.22q-2.82 2.76-5.5 5.66-2.7 2.88-5.25 5.88c-1.67 2.02-3.35 4.03-4.89 6.15-1.62 2.06-3.04 4.26-4.58 6.36-1.39 2.2-2.92 4.32-4.17 6.6q-2.01 3.34-3.72 6.83c-1.24 2.27-2.11 4.71-3.25 7.02l-5.92-5.92 8.63-3.47 0.08-0.04c2.28-0.91 4.87 0.19 5.79 2.47 0.76 1.9 0.12 4.02-1.43 5.21-4.26 3.23-8.45 6.54-12.75 9.72l-2.79-7.66 6.83-0.09 0.17-0.01c2.25-0.03 4.11 1.78 4.14 4.04 0.01 0.91-0.28 1.76-0.78 2.45-1.02 1.41-2.09 2.98-3.11 4.51l-3.02 4.67q-3.02 4.68-5.8 9.51c-1.88 3.22-3.58 6.51-5.31 9.8-1.72 3.3-3.24 6.68-4.7 10.1l-2.9-2.94 3.88-1 0.26-0.07c1.05-0.27 2.12 0.36 2.39 1.41 0.13 0.49 0.06 1-0.16 1.41-3.78 7.08-7.63 14.13-11.72 21.07z"/>
					<path id="&lt;Path&gt;" class="s0" d="m564.34 560.52c-0.9 0.19-1.78 0.7-1.79 1.35-0.05 0.62 0.38 1.41 0.83 1.95l0.04 0.08c1.46 2.14 2.71 4.48 3.58 7.05 0.91 2.55 1.37 5.37 1.17 8.3-0.16 2.92-1.12 5.92-2.79 8.46q-1.24 1.92-2.88 3.53-0.82 0.79-1.74 1.51c-0.65 0.5-1.15 0.87-2.13 1.38l2.22-2.95c-0.29 2.14-0.77 4.29-1.63 6.29-0.87 1.99-1.97 3.86-3.27 5.56-2.68 3.34-5.86 5.98-9.64 7.97-2.2 1.11-4.18 1.69-6.38 2.07-2.16 0.37-4.42 0.46-6.68 0.17-2.26-0.31-4.51-1.02-6.56-2.08-2.13-1.13-3.56-2.29-5.37-4.15-3.14-3.35-4.87-7.85-4.96-12.24-0.06-2.21 0.22-4.42 1.05-6.63 0.44-1.13 0.95-2.2 1.95-3.28 0.79-0.84 1.55-1.47 2.3-2.08 2.97-2.37 5.94-4.26 8.77-6.37 1.38-1.08 2.79-2.13 3.98-3.36 1.12-1.24 2.32-2.61 2.19-4.48 0.86 1.72 0.15 3.89-0.7 5.53-0.89 1.69-1.98 3.25-3.16 4.68-2.31 2.91-4.95 5.51-7.19 8.07-0.54 0.63-1.06 1.28-1.39 1.84-0.18 0.28-0.44 0.87-0.53 1.45-0.25 1.21-0.26 2.65 0 4.02 0.52 2.74 1.78 5.24 3.73 6.98 0.71 0.69 2.18 1.71 3.26 2.19q1.76 0.79 3.71 0.97c1.29 0.15 2.66 0.09 4.03-0.17 1.33-0.25 2.84-0.68 3.84-1.19 2.58-1.33 5.13-3.24 7.04-5.41 1.94-2.19 3.27-4.72 3.93-7.52l0.19-0.82c0.25-1.06 1.05-1.85 2.03-2.13 0.15-0.04 0.72-0.32 1.09-0.53q0.63-0.36 1.24-0.79 1.2-0.88 2.18-2 1.95-2.27 2.83-5.32c0.56-2.04 0.62-4.29 0.45-6.62-0.1-1.17-0.3-2.34-0.55-3.52q-0.38-1.78-0.9-3.57l0.04 0.08c-0.23-0.54-0.35-1.02-0.42-1.57-0.05-0.54-0.02-1.14 0.26-1.68 0.27-0.55 0.8-0.91 1.3-1 0.51-0.13 0.97-0.07 1.43-0.02z"/>
					<path id="&lt;Path&gt;" class="s0" d="m579.89 701.34c-0.77-2.72-1.44-5.4-2.22-8.05-0.76-2.65-1.52-5.28-2.39-7.88q-1.19-3.92-2.6-7.74l-1.39-3.81c-0.47-1.24-0.97-2.54-1.47-3.67-0.77-1.78 0.04-3.85 1.81-4.63 1.19-0.51 2.51-0.33 3.48 0.38l0.37 0.28c1.6 1.16 3.21 2.31 4.77 3.52l-5.98 4.87q-2.21-3.69-4.34-7.43c-1.16-2.03-0.46-4.61 1.57-5.77 1.3-0.74 2.82-0.72 4.05-0.08l0.24 0.12 4.1 2.17-6.16 5.63-6.36-13.05-3.24-6.5-3.27-6.42-0.16-0.3c-1.06-2.09-0.23-4.64 1.85-5.7 1.15-0.59 2.45-0.6 3.55-0.15l4 1.66-5.14 5.82q-2.31-4.79-4.75-9.54c-1.61-3.18-3.41-6.24-5.12-9.4q-2.69-4.63-5.52-9.24c-1.93-3.05-3.87-6.11-6-9.1l-0.02-0.02q-0.02-0.04 0.02-0.08l0.02-0.01 0.33-0.08-0.28 0.2 0.02-0.1q2.29 1.56 4.38 3.38c1.4 1.2 2.79 2.42 4.1 3.73 2.65 2.57 5.15 5.31 7.51 8.15 1.16 1.44 2.38 2.84 3.45 4.35q1.67 2.22 3.25 4.51c2.15 3.02 4.08 6.18 5.96 9.38 1.15 1.94 0.51 4.44-1.43 5.58-1.06 0.62-2.28 0.72-3.36 0.36l-0.34-0.12-4.1-1.38 5.25-6.14c1.33 2.18 2.5 4.33 3.71 6.51 1.21 2.17 2.33 4.38 3.45 6.59q3.35 6.65 6.26 13.5l0.08 0.2c0.94 2.22-0.09 4.78-2.31 5.71-1.32 0.57-2.79 0.41-3.94-0.27l-3.98-2.38 5.86-5.74q1.92 3.85 3.75 7.75l0.14 0.31c0.92 1.95 0.08 4.27-1.86 5.19-1.46 0.68-3.14 0.38-4.27-0.63-1.47-1.32-2.89-2.7-4.32-4.06l5.65-3.98c0.43 1.48 0.75 2.81 1.08 4.21 0.31 1.39 0.65 2.77 0.87 4.17q0.73 4.18 1.21 8.38c0.24 2.81 0.46 5.61 0.49 8.42q0.08 4.23-0.31 8.42z"/>
					<path id="&lt;Path&gt;" class="s0" d="m515.27 536.95c0.55 1.14 1.7 1.95 3.06 1.95 1.89 0 3.41-1.53 3.41-3.41 0-1.11-0.56-2.05-1.37-2.67q0.55-0.1 1.12-0.11c3.7 0 6.7 3 6.7 6.7 0 3.7-3 6.7-6.7 6.7-3.7 0-6.7-3-6.7-6.7q0.02-1.31 0.48-2.46z"/>
					<path id="&lt;Path&gt;" class="s0" d="m558.35 592.47c0 0 2.38-15.19-7.95-25.16 0 0 7.12 23.5-2.02 34.3-9.13 10.8 5.58-0.71 5.58-0.71"/>
				</g>
				<path id="&lt;Path&gt;" class="s0" d="m688.12 385.9c0 0-65.29-0.63-117.27 38.33 0 0 50.87-29.42 120.85-29.39"/>
			</g>
		</g>
	</g>
</svg>